<?xml version="1.0" encoding="UTF-8"?>
<!DOCTYPE svg PUBLIC "-//W3C//DTD SVG 1.1//EN" "http://www.w3.org/Graphics/SVG/1.1/DTD/svg11.dtd">
<!-- Creator: CorelDRAW -->
<svg xmlns="http://www.w3.org/2000/svg" xml:space="preserve" width="148.748mm" height="36.1948mm" version="1.1" style="shape-rendering:geometricPrecision; text-rendering:geometricPrecision; image-rendering:optimizeQuality; fill-rule:evenodd; clip-rule:evenodd"
viewBox="0 0 8058.28 1960.82"
 xmlns:xlink="http://www.w3.org/1999/xlink"
 xmlns:xodm="http://www.corel.com/coreldraw/odm/2003">
 <defs>
  <style type="text/css">
   <![CDATA[
    .fil1 {fill:#AFE0C7}
    .fil0 {fill:#252645;fill-rule:nonzero}
   ]]>
  </style>
 </defs>
 <g id="Layer_x0020_1">
  <metadata id="CorelCorpID_0Corel-Layer"/>
  <g id="_105553674702048">
   <g>
    <polygon class="fil0" points="1591.75,1345.1 1674.79,1345.1 2368.84,140.13 2202.54,1345.1 2287.42,1345.1 2470.28,20.19 2348.49,20.19 1649.46,1234.39 1287.45,20.19 1163.82,20.19 980.96,1345.1 1065.84,1345.1 1232.4,138.28 "/>
    <path class="fil0" d="M3792.51 1343.37l92.26 0 -335.66 -1324.92 -97.8 0 -705.08 1324.92 88.57 0 207.67 -394.89 651.38 0 98.66 394.89zm-308.06 -1230.81l190.31 760.26 -592.33 0 402.02 -760.26z"/>
    <path class="fil0" d="M5156.48 992.77c28.01,-202.98 -87.59,-287.86 -300.82,-334l-145.14 -31.37c-159.39,-35.06 -301.73,-86.73 -277.02,-265.72 20.12,-145.78 159.42,-286.02 382.7,-286.02 206.67,0 327.81,138.39 312.65,328.46l94.11 0c21.2,-247.27 -150.9,-404.12 -396.33,-404.12 -256.49,0 -457.9,162.39 -485.91,365.37 -32.35,234.35 151.48,306.32 312.97,339.54l146.99 31.37c207.94,44.29 283.65,110.72 262.26,265.72 -24.45,177.15 -203.45,284.18 -408.28,284.18 -249.11,0 -356.25,-132.86 -343,-335.84l-92.26 0c-22.29,241.73 125.89,411.5 424.83,411.5 300.78,0 485.26,-173.45 512.26,-369.06z"/>
    <path class="fil0" d="M6696.01 18.45l-88.57 0 -123.52 894.97c-32.34,234.35 -214.59,378.29 -426.8,378.29 -212.21,0 -352.88,-143.94 -320.54,-378.29l123.52 -894.97 -90.42 0 -122.5 887.59c-40.49,293.4 124.04,465.01 398.99,465.01 273.1,0 486.86,-171.61 527.35,-465.01l122.5 -887.59z"/>
    <path class="fil0" d="M7970.6 992.77c28.01,-202.98 -87.6,-287.86 -300.82,-334l-145.14 -31.37c-159.39,-35.06 -301.73,-86.73 -277.02,-265.72 20.12,-145.78 159.42,-286.02 382.7,-286.02 206.67,0 327.82,138.39 312.65,328.46l94.11 0c21.21,-247.27 -150.9,-404.12 -396.32,-404.12 -256.49,0 -457.9,162.39 -485.91,365.37 -32.35,234.35 151.48,306.32 312.97,339.54l146.99 31.37c207.94,44.29 283.65,110.72 262.26,265.72 -24.45,177.15 -203.45,284.18 -408.28,284.18 -249.11,0 -356.25,-132.86 -343,-335.84l-92.26 0c-22.3,241.73 125.88,411.5 424.82,411.5 300.78,0 485.26,-173.45 512.26,-369.06z"/>
    <polygon class="fil0" points="394.04,1343.37 576.9,18.45 486.48,18.45 303.62,1343.37 "/>
   </g>
   <polygon class="fil0" points="1785.39,1882.48 1785.39,1606.78 1766.58,1606.78 1766.58,1882.48 "/>
   <path id="_1" class="fil0" d="M1866.03 1882.48l0 -120.19c0,-39.55 27.26,-69.89 61.82,-69.89 35.71,0 55.3,23.42 55.3,65.28l0 124.8 17.67 0 0 -120.19c0,-39.55 27.65,-69.89 61.82,-69.89 35.71,0 55.3,23.42 55.3,65.28l0 124.8 17.67 0 0 -130.94c0,-46.47 -25.73,-74.11 -67.97,-74.11 -31.87,0 -59.14,19.97 -70.65,50.3 -7.68,-31.49 -31.49,-50.3 -64.13,-50.3 -29.57,0 -54.91,16.9 -67.58,44.54l0 -40.7 -16.9 0 0 201.21 17.67 0z"/>
   <path id="_2" class="fil0" d="M2320.29 1882.48l16.51 0 0 -132.86c0,-45.31 -26.5,-72.19 -71.42,-72.19 -44.93,0 -75.26,29.18 -75.64,73.73l16.51 0c0.38,-36.48 23.42,-59.52 59.52,-59.52 33.79,0 53.76,22.27 53.76,59.9l0 18.81c-22.66,-1.92 -31.88,-2.3 -44.55,-2.3 -61.43,0 -92.92,19.97 -92.92,59.52 0,35.71 26.88,58.75 68.35,58.75 32.64,0 59.14,-16.9 69.88,-44.54l0 40.7zm-120.57 -55.3c0,-31.49 24.57,-46.46 76.03,-46.46 11.52,0 24.58,0.38 43.78,2.3l0 18.81c0,42.62 -26.5,70.65 -67.58,70.65 -31.49,0 -52.22,-18.05 -52.22,-45.31z"/>
   <path id="_3" class="fil0" d="M2470.04 1960.82c52.99,0 83.33,-29.57 83.33,-81.02l0 -198.52 -16.89 0 0 48c-12.67,-32.26 -39.17,-51.84 -70.65,-51.84 -51.07,0 -84.48,40.32 -84.48,102.52 0,62.59 33.41,103.29 84.48,103.29 31.87,0 57.6,-18.43 69.88,-49.54l0 46.47c0,43 -22.66,66.04 -66.04,66.04 -39.94,0 -63.36,-19.58 -66.05,-55.68l-16.89 0c2.3,44.16 33.02,70.27 83.32,70.27zm-70.65 -180.86c0,-54.53 26.11,-87.55 68.35,-87.55 41.85,0 68.74,34.94 68.74,89.85 0,51.84 -27.65,85.63 -68.74,85.63 -42.62,0 -68.35,-33.02 -68.35,-87.94z"/>
   <path id="_4" class="fil0" d="M2691.61 1886.71c45.69,0 79.1,-28.04 87.16,-72.19l-17.28 0c-6.91,36.1 -32.64,57.6 -69.88,57.6 -43.78,0 -71.81,-33.4 -74.11,-86.01l160.51 0c2.69,-64.51 -33.02,-108.67 -88.32,-108.67 -51.45,0 -89.85,43.77 -89.85,102.52 0,64.13 36.87,106.75 91.78,106.75zm-1.92 -195.45c41.09,0 67.2,30.33 69.88,81.02l-141.69 0c2.3,-48.38 31.49,-81.02 71.8,-81.02z"/>
   <path id="_5" class="fil0" d="M2843.28 1762.68c0,-39.55 28.03,-70.27 62.97,-70.27 35.71,0 55.68,23.81 55.68,65.66l0 124.41 17.66 0 0 -130.94c0,-47.23 -26.5,-74.11 -69.12,-74.11 -29.95,0 -55.68,18.43 -67.97,44.93l0 -41.09 -16.9 0 0 201.21 17.67 0 0 -119.81z"/>
   <path id="_6" class="fil0" d="M3115.91 1886.71c45.69,0 79.1,-28.04 87.16,-72.19l-17.28 0c-6.91,36.1 -32.64,57.6 -69.88,57.6 -43.78,0 -71.81,-33.4 -74.11,-86.01l160.51 0c2.69,-64.51 -33.02,-108.67 -88.32,-108.67 -51.45,0 -89.85,43.77 -89.85,102.52 0,64.13 36.87,106.75 91.78,106.75zm-1.92 -195.45c41.09,0 67.2,30.33 69.88,81.02l-141.69 0c2.3,-48.38 31.49,-81.02 71.8,-81.02z"/>
   <path id="_7" class="fil0" d="M3477.62 1771.13c0,-43.78 33.4,-75.26 75.26,-74.88l0 -18.81c-33.4,0 -62.97,20.74 -76.03,52.22l0 -48.38 -16.9 0 0 201.21 17.67 0 0 -111.35z"/>
   <path id="_8" class="fil0" d="M3613.55 1634.43c0,-9.22 -7.29,-15.75 -16.89,-15.75 -9.98,0 -17.28,6.53 -17.28,15.75 0,9.6 7.3,16.89 17.28,16.89 9.6,0 16.89,-7.29 16.89,-16.89zm-8.06 248.05l0 -201.21 -17.67 0 0 201.21 17.67 0z"/>
   <path id="_9" class="fil0" d="M3684.97 1762.68c0,-39.55 28.03,-70.27 62.97,-70.27 35.71,0 55.68,23.81 55.68,65.66l0 124.41 17.66 0 0 -130.94c0,-47.23 -26.5,-74.11 -69.12,-74.11 -29.95,0 -55.68,18.43 -67.97,44.93l0 -41.09 -16.9 0 0 201.21 17.67 0 0 -119.81z"/>
   <path id="_10" class="fil0" d="M3954.52 1960.82c52.99,0 83.33,-29.57 83.33,-81.02l0 -198.52 -16.89 0 0 48c-12.67,-32.26 -39.17,-51.84 -70.65,-51.84 -51.07,0 -84.48,40.32 -84.48,102.52 0,62.59 33.41,103.29 84.48,103.29 31.87,0 57.6,-18.43 69.88,-49.54l0 46.47c0,43 -22.66,66.04 -66.04,66.04 -39.94,0 -63.36,-19.58 -66.05,-55.68l-16.89 0c2.3,44.16 33.02,70.27 83.32,70.27zm-70.65 -180.86c0,-54.53 26.11,-87.55 68.35,-87.55 41.85,0 68.74,34.94 68.74,89.85 0,51.84 -27.65,85.63 -68.74,85.63 -42.62,0 -68.35,-33.02 -68.35,-87.94z"/>
   <path id="_11" class="fil0" d="M4368.08 1809.53c0,-42.24 -26.5,-59.9 -72.19,-69.5l-31.1 -6.53c-34.17,-7.3 -65.28,-18.05 -65.28,-55.3 0,-30.34 24.96,-59.52 71.42,-59.52 43.01,0 72.19,28.8 74.49,68.35l19.58 0c-2.69,-51.45 -43.01,-84.09 -94.08,-84.09 -53.37,0 -90.62,33.79 -90.62,76.03 0,48.76 40.32,63.74 74.88,70.65l31.49 6.52c44.54,9.22 62.21,23.04 62.21,55.3 0,36.87 -34.18,59.14 -76.8,59.14 -51.84,0 -77.95,-27.65 -81.02,-69.88l-19.2 0c2.3,50.3 38.01,85.63 100.22,85.63 62.59,0 96,-36.1 96,-76.8z"/>
   <path id="_12" class="fil0" d="M4548.55 1802.61c0,38.78 -24.57,68.73 -61.43,68.73 -30.72,0 -53.38,-17.28 -53.38,-62.59l0 -127.48 -17.66 0 0 131.71c0,50.3 26.11,73.34 67.2,73.34 30.72,0 56.06,-18.43 66.43,-43.78l0 39.94 16.9 0 0 -201.21 -18.05 0 0 121.34z"/>
   <path id="_13" class="fil0" d="M4772.42 1829.5c0,-29.18 -17.66,-44.93 -57.98,-52.61l-27.26 -5.37c-33.79,-6.53 -47.23,-18.05 -47.23,-40.32 0,-24.19 21.5,-39.93 53.37,-39.93 34.56,0 56.83,18.05 59.52,49.15l16.9 0c-2.69,-39.16 -31.87,-62.97 -76.8,-62.97 -41.85,0 -70.65,22.66 -70.65,54.91 0,28.41 19.58,46.84 58.37,54.53l26.88 4.99c34.56,6.91 46.84,17.28 46.84,39.94 0,25.73 -21.5,40.32 -58.37,40.32 -37.24,0 -61.82,-19.2 -64.13,-50.69l-16.9 0c3.46,40.32 33.79,64.9 81.02,64.9 47.23,0 76.41,-21.89 76.41,-56.83z"/>
   <path id="_14" class="fil0" d="M4918.33 1865.97c-8.45,3.07 -14.59,3.84 -22.66,3.84 -23.42,0 -40.32,-10.75 -40.32,-44.54l0 -129.41 64.9 0 0 -14.59 -64.9 0 0 -59.9 -18.05 0 0 59.9 -49.54 0 0 14.59 49.54 0 0 132.86c0,43 25.34,57.6 56.06,57.6 8.07,0 15.36,-1.15 24.96,-4.61l0 -15.74z"/>
   <path id="_15" class="fil0" d="M5088.43 1882.48l16.51 0 0 -132.86c0,-45.31 -26.5,-72.19 -71.42,-72.19 -44.93,0 -75.26,29.18 -75.64,73.73l16.51 0c0.38,-36.48 23.42,-59.52 59.52,-59.52 33.79,0 53.76,22.27 53.76,59.9l0 18.81c-22.66,-1.92 -31.88,-2.3 -44.55,-2.3 -61.43,0 -92.92,19.97 -92.92,59.52 0,35.71 26.88,58.75 68.35,58.75 32.64,0 59.14,-16.9 69.88,-44.54l0 40.7zm-120.57 -55.3c0,-31.49 24.57,-46.46 76.03,-46.46 11.52,0 24.58,0.38 43.78,2.3l0 18.81c0,42.62 -26.5,70.65 -67.58,70.65 -31.49,0 -52.22,-18.05 -52.22,-45.31z"/>
   <path id="_16" class="fil0" d="M5190.96 1634.43c0,-9.22 -7.29,-15.75 -16.89,-15.75 -9.98,0 -17.28,6.53 -17.28,15.75 0,9.6 7.3,16.89 17.28,16.89 9.6,0 16.89,-7.29 16.89,-16.89zm-8.06 248.05l0 -201.21 -17.67 0 0 201.21 17.67 0z"/>
   <path id="_17" class="fil0" d="M5262.38 1762.68c0,-39.55 28.03,-70.27 62.97,-70.27 35.71,0 55.68,23.81 55.68,65.66l0 124.41 17.66 0 0 -130.94c0,-47.23 -26.5,-74.11 -69.12,-74.11 -29.95,0 -55.68,18.43 -67.97,44.93l0 -41.09 -16.9 0 0 201.21 17.67 0 0 -119.81z"/>
   <path id="_18" class="fil0" d="M5583.77 1882.48l16.51 0 0 -132.86c0,-45.31 -26.5,-72.19 -71.42,-72.19 -44.93,0 -75.26,29.18 -75.64,73.73l16.51 0c0.38,-36.48 23.42,-59.52 59.52,-59.52 33.79,0 53.76,22.27 53.76,59.9l0 18.81c-22.66,-1.92 -31.88,-2.3 -44.55,-2.3 -61.43,0 -92.92,19.97 -92.92,59.52 0,35.71 26.88,58.75 68.35,58.75 32.64,0 59.14,-16.9 69.88,-44.54l0 40.7zm-120.57 -55.3c0,-31.49 24.57,-46.46 76.03,-46.46 11.52,0 24.58,0.38 43.78,2.3l0 18.81c0,42.62 -26.5,70.65 -67.58,70.65 -31.49,0 -52.22,-18.05 -52.22,-45.31z"/>
   <path id="_19" class="fil0" d="M5839.51 1781.5c0,-62.59 -34.94,-104.06 -88.31,-104.06 -33.02,0 -60.28,18.81 -72.96,51.45l0 -122.11 -17.67 0 0 275.7 16.9 0 0 -46.84c13.44,31.87 41.09,50.69 73.73,50.69 53.76,0 88.31,-41.85 88.31,-104.83zm-18.05 0c0,56.06 -28.03,89.85 -72.19,89.85 -42.62,0 -71.81,-35.71 -71.81,-90.62 0,-55.3 29.95,-88.32 71.81,-88.32 44.16,0 72.19,33.41 72.19,89.09z"/>
   <path id="_20" class="fil0" d="M5911.7 1634.43c0,-9.22 -7.29,-15.75 -16.89,-15.75 -9.98,0 -17.28,6.53 -17.28,15.75 0,9.6 7.3,16.89 17.28,16.89 9.6,0 16.89,-7.29 16.89,-16.89zm-8.06 248.05l0 -201.21 -17.67 0 0 201.21 17.67 0z"/>
   <polygon id="_21" class="fil0" points="5983.12,1882.48 5983.12,1606.78 5965.46,1606.78 5965.46,1882.48 "/>
   <path id="_22" class="fil0" d="M6071.05 1634.43c0,-9.22 -7.29,-15.75 -16.89,-15.75 -9.98,0 -17.28,6.53 -17.28,15.75 0,9.6 7.3,16.89 17.28,16.89 9.6,0 16.89,-7.29 16.89,-16.89zm-8.06 248.05l0 -201.21 -17.67 0 0 201.21 17.67 0z"/>
   <path id="_23" class="fil0" d="M6220.81 1865.97c-8.45,3.07 -14.59,3.84 -22.66,3.84 -23.42,0 -40.32,-10.75 -40.32,-44.54l0 -129.41 64.9 0 0 -14.59 -64.9 0 0 -59.9 -18.05 0 0 59.9 -49.54 0 0 14.59 49.54 0 0 132.86c0,43 25.34,57.6 56.06,57.6 8.07,0 15.36,-1.15 24.96,-4.61l0 -15.74z"/>
   <polygon id="_24" class="fil0" points="6412.04,1681.28 6393.6,1681.28 6327.17,1857.53 6256.52,1681.28 6237.7,1681.28 6317.96,1879.8 6288.39,1956.59 6307.2,1956.59 "/>
   <path id="_25" class="fil0" d="M3325.95 1886.71c45.69,0 79.1,-28.04 87.16,-72.19l-17.28 0c-6.91,36.1 -32.64,57.6 -69.88,57.6 -43.78,0 -71.81,-33.4 -74.11,-86.01l160.51 0c2.69,-64.51 -33.02,-108.67 -88.32,-108.67 -51.45,0 -89.85,43.77 -89.85,102.52 0,64.13 36.87,106.75 91.78,106.75zm-1.92 -195.45c41.09,0 67.2,30.33 69.88,81.02l-141.69 0c2.3,-48.38 31.49,-81.02 71.8,-81.02z"/>
   <path class="fil1" d="M1507.64 1343.37l6.46 0 76.58 0 487.25 -845.92 -116.75 845.92 80.68 0 4.2 0 72.37 0 8.31 0 76.58 0 182.86 -1324.92 -76.58 0 -45.21 0 -35.46 0 -41.11 0 -80.68 0 -595.43 1034.25 -308.36 -1034.25 -76.58 0 -47.06 0 -33.62 0 -42.96 0 -80.68 0 -182.86 1324.92 80.68 0 4.2 0 72.37 0 8.31 0 76.58 0 116.76 -845.96 251.89 845.96 80.68 0 2.36 0 74.22 0zm2036.68 0l80.68 0 11.58 0 69.09 0 11.59 0 80.68 0 -335.66 -1324.92 -80.68 0 -17.12 0 -63.56 0 -17.12 0 -80.68 0 -705.08 1324.92 80.68 0 7.89 0 72.78 0 7.9 0 80.68 0 207.67 -394.89 490.02 0 98.66 394.89zm-256.21 -1023.71l138.47 553.16 -430.98 0 292.51 -553.16zm1353.48 -236.94c158.99,30.42 248.51,156.43 235.36,321.39l80.68 0 13.43 0 67.25 0 13.43 0 80.68 0c21.2,-247.27 -150.9,-404.12 -396.33,-404.12 -13.85,0 -27.53,0.5 -41.04,1.43 -12.98,-0.93 -26.19,-1.43 -39.63,-1.43 -13.85,0 -27.53,0.5 -41.04,1.43 -12.99,-0.93 -26.19,-1.43 -39.64,-1.43 -256.49,0 -457.9,162.39 -485.91,365.37 -32.35,234.35 151.48,306.32 312.97,339.54l146.99 31.37c207.94,44.29 283.65,110.72 262.26,265.72 -21.24,153.88 -159.09,254.82 -329.18,278.7 -190.43,-26.88 -272.42,-151.34 -260.73,-330.36l-80.68 0 -11.59 0 -69.09 0 -11.58 0 -80.68 0c-22.3,241.73 125.88,411.5 424.82,411.5 13.71,0 27.18,-0.37 40.4,-1.08 13.1,0.71 26.53,1.08 40.28,1.08 13.71,0 27.18,-0.37 40.4,-1.08 13.1,0.71 26.53,1.08 40.28,1.08 300.78,0 485.26,-173.45 512.26,-369.06 28.01,-202.98 -87.59,-287.86 -300.82,-334l-145.14 -31.37c-159.39,-35.06 -301.73,-86.73 -277.02,-265.72 17.46,-126.5 124.68,-248.82 298.63,-278.95zm1800.37 -64.28l-80.68 0 -123.52 894.97c-28.1,203.58 -169.33,338.91 -345.05,370.94 -166.53,-32.02 -269.03,-167.34 -240.94,-370.94l123.52 -894.97 -80.68 0 -9.74 0 -70.94 0 -9.74 0 -80.68 0 -122.5 887.59c-40.5,293.4 124.04,465.01 398.99,465.01 13.62,0 27.09,-0.45 40.4,-1.29 13.15,0.85 26.57,1.29 40.28,1.29 13.62,0 27.09,-0.45 40.4,-1.29 13.15,0.85 26.57,1.29 40.28,1.29 273.1,0 486.85,-171.61 527.34,-465.01l122.5 -887.59 -80.68 0 -7.89 0 -72.78 0 -7.9 0zm1013.75 64.28c158.99,30.42 248.51,156.43 235.36,321.39l80.68 0 13.43 0 67.25 0 13.43 0 80.68 0c21.2,-247.27 -150.9,-404.12 -396.33,-404.12 -13.85,0 -27.53,0.5 -41.04,1.43 -12.99,-0.93 -26.19,-1.43 -39.64,-1.43 -13.85,0 -27.53,0.5 -41.04,1.43 -12.99,-0.93 -26.19,-1.43 -39.64,-1.43 -256.49,0 -457.9,162.39 -485.91,365.37 -32.34,234.35 151.48,306.32 312.97,339.54l146.99 31.37c207.94,44.29 283.65,110.72 262.26,265.72 -21.24,153.88 -159.09,254.83 -329.18,278.7 -190.43,-26.89 -272.42,-151.34 -260.73,-330.36l-80.68 0 -11.58 0 -69.1 0 -11.58 0 -80.68 0c-22.29,241.73 125.89,411.5 424.83,411.5 13.71,0 27.18,-0.37 40.4,-1.08 13.1,0.71 26.53,1.08 40.28,1.08 13.71,0 27.18,-0.37 40.4,-1.08 13.1,0.71 26.53,1.08 40.28,1.08 300.78,0 485.26,-173.45 512.26,-369.06 28.01,-202.98 -87.59,-287.86 -300.82,-334l-145.14 -31.37c-159.39,-35.06 -301.73,-86.73 -277.02,-265.72 17.46,-126.5 124.68,-248.82 298.63,-278.95zm-7139.63 -64.28l-80.68 0 -182.86 1324.92 80.68 0 9.75 0 70.94 0 9.74 0 80.68 0 182.86 -1324.92 -80.68 0 -9.74 0 -70.94 0 -9.74 0z"/>
   <g>
    <polygon class="fil0" points="1297.84,1343.37 1380.88,1343.37 2074.94,138.4 1908.63,1343.37 1993.52,1343.37 2176.38,18.45 2054.59,18.45 1355.56,1232.65 993.55,18.45 869.91,18.45 687.05,1343.37 771.94,1343.37 938.5,136.55 "/>
    <path class="fil0" d="M3491.77 1343.37l92.26 0 -335.66 -1324.92 -97.8 0 -705.08 1324.92 88.57 0 207.67 -394.89 651.38 0 98.66 394.89zm-308.06 -1230.81l190.31 760.26 -592.33 0 402.02 -760.26z"/>
    <path class="fil0" d="M4852.04 992.77c28.01,-202.98 -87.59,-287.86 -300.82,-334l-145.14 -31.37c-159.39,-35.06 -301.73,-86.73 -277.02,-265.72 20.12,-145.78 159.42,-286.02 382.7,-286.02 206.67,0 327.81,138.39 312.65,328.46l94.11 0c21.2,-247.27 -150.9,-404.12 -396.33,-404.12 -256.49,0 -457.9,162.39 -485.91,365.37 -32.34,234.35 151.48,306.32 312.97,339.54l146.99 31.37c207.94,44.29 283.65,110.72 262.26,265.72 -24.45,177.15 -203.45,284.18 -408.28,284.18 -249.11,0 -356.25,-132.86 -343,-335.84l-92.26 0c-22.29,241.73 125.89,411.5 424.83,411.5 300.78,0 485.26,-173.45 512.26,-369.06z"/>
    <path class="fil0" d="M6397.31 18.45l-88.57 0 -123.52 894.97c-32.34,234.35 -214.59,378.29 -426.8,378.29 -212.21,0 -352.88,-143.94 -320.54,-378.29l123.52 -894.97 -90.42 0 -122.5 887.59c-40.49,293.4 124.04,465.01 398.99,465.01 273.1,0 486.85,-171.61 527.34,-465.01l122.5 -887.59z"/>
    <path class="fil0" d="M7666.16 992.77c28.01,-202.98 -87.6,-287.86 -300.82,-334l-145.14 -31.37c-159.39,-35.06 -301.73,-86.73 -277.02,-265.72 20.12,-145.78 159.42,-286.02 382.7,-286.02 206.67,0 327.82,138.39 312.65,328.46l94.11 0c21.21,-247.27 -150.9,-404.12 -396.32,-404.12 -256.49,0 -457.9,162.39 -485.91,365.37 -32.35,234.35 151.48,306.32 312.97,339.54l146.99 31.37c207.94,44.29 283.66,110.72 262.26,265.72 -24.45,177.15 -203.45,284.18 -408.28,284.18 -249.11,0 -356.25,-132.86 -343,-335.84l-92.26 0c-22.3,241.73 125.88,411.5 424.82,411.5 300.78,0 485.26,-173.45 512.26,-369.06z"/>
    <polygon class="fil0" points="90.42,1343.37 273.28,18.45 182.86,18.45 -0,1343.37 "/>
   </g>
  </g>
 </g>
</svg>
