<svg fill="none" height="58" viewBox="0 0 402 58" width="402" xmlns="http://www.w3.org/2000/svg" xmlns:xlink="http://www.w3.org/1999/xlink"><mask id="a" height="58" maskUnits="userSpaceOnUse" width="401" x="0" y="0"><path d="m400.998.199951h-400.599562v57.599949h400.599562z" fill="#fff"/></mask><mask id="b" height="58" maskUnits="userSpaceOnUse" width="401" x="0" y="0"><path d="m400.998.199951h-400.599562v57.599949h400.599562z" fill="#fff"/></mask><mask id="c" height="58" maskUnits="userSpaceOnUse" width="401" x="0" y="0"><path d="m400.998.199951h-400.599562v57.599949h400.599562z" fill="#fff"/></mask><path d="m55.8984 1.19995-19 47.59995-19.7-47.59995h-16.799962v55.59995h10.499962v-41.2999l17.5 41.2999h16.5l16.4-41.1999v41.1999h10.9v-55.59995z" fill="#fff"/><g mask="url(#a)"><path d="m131.498 31.4v-30.20005h-10.9v29.40005c0 5.5-1.3 9.4-3.9 11.9s-6 3.7999-10.3 3.7999-7.6996-1.2999-10.2996-3.7999-3.9-6.5-3.9-11.9v-29.40005h-10.8v30.20005c0 4.3.7 8.1 2.1 11.5s3.3 6.1 5.6 8.1c2.4 2 5 3.5999 8 4.5999 2.9 1 6.0996 1.5 9.3996 1.5s6.5-.5 9.4-1.5 5.6-2.5999 8-4.5999 4.3-4.7 5.6-8.1 2-7.2 2-11.5z" fill="#fff"/></g><path d="m183.899 1.19995v47.00005l-31.7-47.00005h-11.5v55.59995h10.5v-37.5999l24.7 37.5999h18.5v-55.59995z" fill="#fff"/><g mask="url(#b)"><path d="m338.2 31.2999v-30.09995h-10.9v29.40005c0 5.5-1.3 9.4-3.9 11.9s-6 3.7999-10.3 3.7999-7.7-1.2999-10.3-3.7999-3.9-6.5-3.9-11.9v-29.40005h-10.9v30.20005c0 4.3.7 8.1 2.1 11.5s3.3 6.1 5.6 8.1c2.4 2 5 3.5999 8 4.5999 2.9 1 6.1 1.5 9.4 1.5s6.5-.5 9.4-1.5 5.6-2.5999 8-4.5999 4.3-4.7 5.6-8.1c1.4-3.4 2.1-7.3001 2.1-11.6001z" fill="#fff"/></g><path d="m390.598 1v47l-31.7-47h-11.5v55.6h10.4v-37.6l24.8 37.6h18.5v-55.6z" fill="#fff"/><g mask="url(#c)"><path d="m262.5 29 19.2-21.30005-8.2-7.499999-13.1 14.500049c-3.4 3.7-6.1 6.2-8.1 7.4s-4.7 1.8-8 1.8h-27.4v-22.70005h-10.9v55.59995h10.9v-22.7h27.4c3.3 0 5.9.6001 8 1.8001 2 1.2 4.8 3.6999 8.1 7.3999l13.1 14.5 8.2-7.5z" fill="#fff"/></g></svg>