<svg version="1.2" xmlns="http://www.w3.org/2000/svg" viewBox="0 0 567 404" width="567" height="404">
	<title>logo-INMA-uz-csic-so</title>
	<defs>
		<clipPath clipPathUnits="userSpaceOnUse" id="cp1">
			<path d="m-222.69-216.3h1010.27v714.33h-1010.27z"/>
		</clipPath>
		<clipPath clipPathUnits="userSpaceOnUse" id="cp2">
			<path d="m-121.5 190.81h449.89v318.1h-449.89z"/>
		</clipPath>
	</defs>
	<style>
		.s0 { fill: #007fa3 } 
		.s1 { fill: #9c9d9f } 
		.s2 { fill: #9b9c9e } 
		.s3 { fill: #948a6d } 
		.s4 { fill: #3d3d3f } 
	</style>
	<g id="_Artboards_">
	</g>
	<g id="Capa 1">
		<g id="&lt;Group&gt;">
			<filter id="f0">
				<feFlood flood-color="#ffffff" flood-opacity="1" />
				<feBlend mode="normal" in2="SourceGraphic"/>
				<feComposite in2="SourceAlpha" operator="in" />
			</filter>
			<g id="INMA" clip-path="url(#cp1)" filter="url(#f0)">
				<path id="&lt;Path&gt;" class="s0" d="m6.9 203.6q0.6 0 0.5 0.4v28.2q0.1 0.5-0.5 0.5h-1.9q-0.5 0-0.5-0.5v-28.2q0-0.4 0.5-0.4z"/>
				<path id="&lt;Path&gt;" class="s0" d="m37.8 203.6q0.5 0 0.5 0.4v28.2q0 0.5-0.5 0.5h-1.9c-0.4 0-0.7-0.1-1.1-0.6l-16.4-24.7v24.8c0 0.3-0.2 0.5-0.5 0.5h-2c-0.3 0-0.5-0.2-0.5-0.5v-28.2c0-0.3 0.2-0.4 0.5-0.4h2.1c1.1 0 1.3 0.1 1.8 0.9l15.5 23.2v-23.7q0-0.4 0.5-0.4z"/>
				<path id="&lt;Path&gt;" class="s0" d="m62.3 203.8c0.3 0 0.5 0.2 0.5 0.4v1.3q0 0.5-0.4 0.5h-8.6c-3.9 0-5.7 1.2-5.7 3.9v0.6c0 2.2 0.5 3.3 3.1 4.4l8.9 3.8c3.6 1.6 4.2 4.1 4.2 6.5v1.2c0 6-4.9 6.4-9.8 6.4-2.8 0-6.6-0.1-9.5-0.4q-0.4 0-0.4-0.4v-1.3c0-0.3 0.2-0.5 0.5-0.5h10.3c3.5 0 5.9-0.7 5.9-3.8v-0.9c0-1.7-0.4-3.5-3-4.6l-9.5-3.9c-3.2-1.4-3.7-3.7-3.7-6.3v-0.9c0-5.6 4.3-6.4 9.6-6.4 2.8 0 4.7 0.1 7.6 0.4z"/>
				<path id="&lt;Path&gt;" class="s0" d="m88.8 203.6q0.4 0 0.4 0.4v1.7q0 0.5-0.4 0.5h-9.2v26q0 0.5-0.5 0.5h-1.9q-0.5 0-0.5-0.5v-26h-9.2c-0.3 0-0.5-0.2-0.5-0.5v-1.7c0-0.3 0.2-0.4 0.5-0.4z"/>
				<path id="&lt;Path&gt;" class="s0" d="m96.8 203.6q0.5 0 0.5 0.4v28.2q0 0.5-0.5 0.5h-2q-0.5 0-0.5-0.5v-28.2q0-0.4 0.5-0.4z"/>
				<path id="&lt;Path&gt;" class="s0" d="m124.1 203.6q0.5 0 0.5 0.4v1.7q0 0.5-0.5 0.5h-9.1v26q0 0.5-0.6 0.5h-1.9q-0.5 0-0.5-0.5v-26h-9.1c-0.3 0-0.5-0.2-0.5-0.5v-1.7c0-0.3 0.2-0.4 0.5-0.4z"/>
				<path id="&lt;Path&gt;" class="s0" d="m151.3 203.6c0.4 0 0.5 0.1 0.5 0.4v14.2c0 11.7-2.2 14.7-11.2 14.7-9 0-11.2-3-11.2-14.7v-14.2c0-0.3 0.1-0.4 0.4-0.4h2c0.4 0 0.5 0.1 0.5 0.4v14.2c0 9.6 1.7 12 8.3 12 6.6 0 8.3-2.4 8.3-12v-14.2c0-0.3 0.1-0.4 0.5-0.4z"/>
				<path id="&lt;Path&gt;" class="s0" d="m178.4 203.6q0.5 0 0.5 0.4v1.7q0 0.5-0.5 0.5h-9.1v26c0 0.3-0.2 0.5-0.6 0.5h-1.9q-0.5 0-0.5-0.5v-26h-9.1c-0.3 0-0.5-0.2-0.5-0.5v-1.7c0-0.3 0.2-0.4 0.5-0.4z"/>
				<path id="&lt;Compound Path&gt;" fill-rule="evenodd" class="s0" d="m205.2 218.2c0 11.3-2.2 14.6-11.6 14.6-9.3 0-11.5-3.3-11.5-14.6 0-11.4 2.2-14.8 11.5-14.8 9.4 0 11.6 3.4 11.6 14.8zm-20.1 0c0 9.4 1.3 12 8.5 12 7.3 0 8.6-2.6 8.6-12 0-9.5-1.3-12.2-8.6-12.2-7.2 0-8.5 2.7-8.5 12.2z"/>
				<path id="&lt;Compound Path&gt;" fill-rule="evenodd" class="s0" d="m250.8 218.1c0 10.6-3 14.8-11.8 14.8-2.9 0-8.1-0.1-10.5-0.2-0.4-0.1-0.5-0.2-0.5-0.5v-28.1c0-0.4 0.1-0.5 0.5-0.5 2.4-0.2 7.6-0.2 10.5-0.2 8.8 0 11.8 4.1 11.8 14.7zm-19.8-12.1v24.2h8c6.6 0 8.8-3.4 8.8-12.1 0-8.7-2.3-12.1-9.3-12.1z"/>
				<path id="&lt;Path&gt;" class="s0" d="m275.8 203.6c0.3 0 0.5 0.1 0.5 0.4v1.7c0 0.3-0.2 0.5-0.5 0.5h-15.2v11.1h13.8q0.5 0 0.5 0.5v1.6q0 0.6-0.5 0.5h-13.8v10.1h15.2c0.3 0 0.5 0.2 0.5 0.5v1.7c0 0.3-0.2 0.5-0.5 0.5h-17.6q-0.6 0-0.6-0.6v-27.9q0-0.6 0.6-0.6z"/>
				<path id="&lt;Path&gt;" class="s0" d="m318.5 203.6q0.5 0 0.5 0.4v28.2q0 0.5-0.5 0.5h-1.9c-0.4 0-0.8-0.1-1.1-0.6l-16.4-24.7v24.8c0 0.3-0.2 0.5-0.5 0.5h-2c-0.3 0-0.5-0.2-0.5-0.5v-28.2c0-0.3 0.2-0.4 0.5-0.4h2.1c1.1 0 1.3 0.1 1.8 0.9l15.5 23.2v-23.7q0-0.4 0.5-0.4z"/>
				<path id="&lt;Compound Path&gt;" fill-rule="evenodd" class="s0" d="m341.3 207.9l6.7 24.2c0 0.4 0 0.6-0.4 0.6h-2.3c-0.2 0-0.3-0.2-0.4-0.6l-2.5-8.9h-12.2l-2.6 8.9c-0.1 0.4-0.2 0.6-0.4 0.6h-2.3c-0.4 0-0.4-0.2-0.4-0.6l6.9-24.2c1.1-4 1.7-4.5 4.9-4.5 3.5 0 3.9 0.5 5 4.5zm-7 0.7l-3.4 11.9h10.8l-3.2-11.9c-0.7-2.3-0.8-2.6-2.2-2.6-1.3 0-1.4 0.3-2 2.6z"/>
				<path id="&lt;Path&gt;" class="s0" d="m376.1 203.6q0.5 0 0.5 0.4v28.2q0 0.5-0.5 0.5h-1.9c-0.4 0-0.7-0.1-1.1-0.6l-16.4-24.7v24.8c0 0.3-0.2 0.5-0.5 0.5h-2c-0.3 0-0.5-0.2-0.5-0.5v-28.2c0-0.3 0.2-0.4 0.5-0.4h2.1c1.1 0 1.3 0.1 1.8 0.9l15.5 23.2v-23.7q0-0.4 0.6-0.4z"/>
				<path id="&lt;Compound Path&gt;" fill-rule="evenodd" class="s0" d="m406.6 218.2c0 11.3-2.2 14.6-11.5 14.6-9.3 0-11.5-3.3-11.5-14.6 0-11.4 2.2-14.8 11.5-14.8 9.3 0 11.5 3.4 11.5 14.8zm-20.1 0c0 9.4 1.4 12 8.6 12 7.2 0 8.5-2.6 8.5-12 0-9.5-1.3-12.2-8.5-12.2-7.2 0-8.6 2.7-8.6 12.2z"/>
				<path id="&lt;Path&gt;" class="s0" d="m431.1 203.6q0.5 0.1 0.5 0.6v1.3q0 0.5-0.5 0.5h-7c-7.2 0-8.6 2.7-8.6 12.1 0 9.4 1.4 12.1 8.6 12.1h7q0.5 0 0.5 0.5v1.4c0 0.2-0.2 0.5-0.5 0.5-2 0.2-4.9 0.2-7 0.2-9.3 0-11.5-3.3-11.5-14.7 0-11.3 2.2-14.7 11.5-14.7 2.1 0 5 0 7 0.2z"/>
				<path id="&lt;Path&gt;" class="s0" d="m440 203.6q0.5 0 0.5 0.4v28.2q0 0.5-0.5 0.5h-2q-0.5 0-0.5-0.5v-28.2q0-0.4 0.5-0.4z"/>
				<path id="&lt;Path&gt;" class="s0" d="m466.6 203.6c0.3 0 0.5 0.1 0.5 0.4v1.7c0 0.3-0.2 0.5-0.5 0.5h-15.2v11.1h13.8q0.5 0 0.5 0.5v1.6q0 0.6-0.5 0.5h-13.8v10.1h15.2c0.3 0 0.5 0.2 0.5 0.5v1.7c0 0.3-0.2 0.5-0.5 0.5h-17.6q-0.6 0-0.6-0.6v-27.9q0-0.6 0.6-0.6z"/>
				<path id="&lt;Path&gt;" class="s0" d="m496 203.6q0.5 0 0.5 0.4v28.2q0 0.5-0.5 0.5h-1.9c-0.4 0-0.7-0.1-1.1-0.6l-16.4-24.7v24.8c0 0.3-0.2 0.5-0.5 0.5h-2c-0.3 0-0.5-0.2-0.5-0.5v-28.2c0-0.3 0.2-0.4 0.5-0.4h2.1c1.1 0 1.3 0.1 1.8 0.9l15.5 23.2v-23.7q0-0.4 0.5-0.4z"/>
				<path id="&lt;Path&gt;" class="s0" d="m521.9 203.6q0.5 0.1 0.5 0.6v1.3q0 0.5-0.5 0.5h-7c-7.2 0-8.5 2.7-8.5 12.1 0 9.4 1.3 12.1 8.5 12.1h7q0.5 0 0.5 0.5v1.4c0 0.2-0.2 0.5-0.5 0.5-1.9 0.2-4.9 0.2-7 0.2-9.3 0-11.5-3.3-11.5-14.7 0-11.3 2.2-14.7 11.5-14.7 2.1 0 5.1 0 7 0.2z"/>
				<path id="&lt;Path&gt;" class="s0" d="m530.8 203.6q0.5 0 0.5 0.4v28.2q0 0.5-0.5 0.5h-2q-0.4 0-0.4-0.5v-28.2q0-0.4 0.4-0.4z"/>
				<path id="&lt;Compound Path&gt;" fill-rule="evenodd" class="s0" d="m553.7 207.9l6.6 24.2c0.1 0.4 0 0.6-0.4 0.6h-2.2c-0.2 0-0.3-0.2-0.4-0.6l-2.5-8.9h-12.2l-2.6 8.9c-0.1 0.4-0.2 0.6-0.5 0.6h-2.2c-0.4 0-0.4-0.2-0.4-0.6l6.9-24.2c1.1-4 1.6-4.5 4.8-4.5 3.5 0 4 0.5 5.1 4.5zm-7.1 0.7l-3.3 11.9h10.8l-3.3-11.9c-0.6-2.3-0.7-2.6-2.2-2.6-1.2 0-1.3 0.3-2 2.6z"/>
				<path id="&lt;Compound Path&gt;" fill-rule="evenodd" class="s0" d="m530.6 266.4c0 11.4-2.3 14.7-11.6 14.7-9.3 0-11.5-3.3-11.5-14.7 0-11.4 2.2-14.8 11.5-14.8 9.3 0 11.6 3.4 11.6 14.8zm-20.1 0c0 9.4 1.3 12.1 8.5 12.1 7.2 0 8.6-2.7 8.6-12.1 0-9.4-1.4-12.2-8.6-12.2-7.2 0-8.5 2.8-8.5 12.2zm12.6-22.4c0.2 0 0.4 0.2 0.4 0.4v0.3c0 0.2-0.1 0.3-0.2 0.4l-4.8 4.7c-0.2 0.1-0.3 0.1-0.5 0l-0.5-0.4c-0.2-0.1-0.2-0.3-0.1-0.5l2.9-4.6c0-0.2 0.1-0.3 0.4-0.3z"/>
				<path id="&lt;Path&gt;" class="s0" d="m28.3 251.8c0.4 0 0.6 0.2 0.4 0.7l-10.6 19.8v8.1q0 0.5-0.4 0.5h-2q-0.5 0-0.5-0.5v-8.1l-10.5-19.8c-0.3-0.5-0.1-0.7 0.3-0.7h2.2c0.4 0 0.6 0.2 0.8 0.5l8.7 16.6 8.6-16.6c0.2-0.3 0.4-0.5 0.8-0.5z"/>
				<path id="&lt;Path&gt;" class="s0" d="m84.4 251.8c0.3 0 0.5 0.2 0.5 0.6l2.5 28c0 0.3-0.2 0.5-0.6 0.5h-1.9q-0.5 0-0.5-0.5l-1.9-23.7-9 22.8q-0.2 0.5-0.7 0.5h-2.1q-0.5 0-0.7-0.5l-9-22.8-1.9 23.7q-0.1 0.5-0.5 0.5h-2c-0.3 0-0.5-0.2-0.5-0.5l2.4-28c0-0.4 0.2-0.6 0.6-0.6h2.2c0.8 0 1 0.4 1.4 1.5l9 23.3 9-23.3c0.5-1.1 0.7-1.5 1.5-1.5z"/>
				<path id="&lt;Compound Path&gt;" fill-rule="evenodd" class="s0" d="m108.6 256.1l6.7 24.3c0.1 0.4 0 0.5-0.4 0.5h-2.2c-0.3 0-0.4-0.1-0.4-0.5l-2.6-9h-12.2l-2.5 9c-0.2 0.4-0.2 0.5-0.5 0.5h-2.2c-0.4 0-0.5-0.1-0.4-0.5l6.9-24.3c1.1-3.9 1.6-4.5 4.8-4.5 3.5 0 4 0.6 5 4.5zm-7 0.7l-3.4 12h10.8l-3.2-12c-0.6-2.3-0.7-2.6-2.2-2.6-1.2 0-1.4 0.3-2 2.6z"/>
				<path id="&lt;Path&gt;" class="s0" d="m137.1 251.8q0.4 0 0.4 0.5v1.6q0 0.5-0.4 0.5h-9.2v26q0 0.5-0.5 0.5h-1.9q-0.5 0-0.5-0.5v-26h-9.2c-0.3 0-0.5-0.1-0.5-0.5v-1.6c0-0.3 0.2-0.5 0.5-0.5z"/>
				<path id="&lt;Path&gt;" class="s0" d="m160.8 251.8c0.3 0 0.5 0.2 0.5 0.5v1.6c0 0.4-0.2 0.5-0.5 0.5h-15.2v11.2h13.8q0.5 0 0.5 0.4v1.7q0 0.5-0.5 0.5h-13.8v10.1h15.2c0.3 0 0.5 0.1 0.5 0.5v1.6c0 0.3-0.2 0.5-0.5 0.5h-17.6q-0.6 0-0.6-0.6v-27.9q0-0.6 0.6-0.6z"/>
				<path id="&lt;Compound Path&gt;" fill-rule="evenodd" class="s0" d="m187.4 260.8c0 6.4-1.7 8.3-6.5 8.9l6.6 10.5c0.3 0.4 0.1 0.7-0.4 0.7h-1.7c-0.7 0-1-0.2-1.3-0.7l-6.5-10.3h-6.8v10.5c0 0.4-0.2 0.5-0.5 0.5h-2c-0.4 0-0.5-0.1-0.5-0.5v-28.1c0-0.4 0.1-0.4 0.5-0.5 2.4-0.1 5.5-0.2 7.4-0.2 8.8 0 11.7 1.2 11.7 9.2zm-16.6-6.6v13.1h4.7c7 0 8.9-0.3 8.9-6.4 0-6-1.9-6.7-8.9-6.7z"/>
				<path id="&lt;Path&gt;" class="s0" d="m196.5 251.8q0.5 0 0.5 0.5v28.1q0 0.5-0.5 0.5h-2q-0.5 0-0.5-0.5v-28.1q0-0.5 0.5-0.5z"/>
				<path id="&lt;Compound Path&gt;" fill-rule="evenodd" class="s0" d="m219.3 256.1l6.7 24.3c0 0.4 0 0.5-0.4 0.5h-2.2c-0.3 0-0.4-0.1-0.5-0.5l-2.5-9h-12.2l-2.6 9c-0.1 0.4-0.2 0.5-0.4 0.5h-2.3c-0.3 0-0.4-0.1-0.3-0.5l6.8-24.3c1.1-3.9 1.7-4.5 4.9-4.5 3.5 0 3.9 0.6 5 4.5zm-7 0.7l-3.4 12h10.8l-3.2-12c-0.7-2.3-0.8-2.6-2.2-2.6-1.3 0-1.4 0.3-2 2.6z"/>
				<path id="&lt;Path&gt;" class="s0" d="m234.2 251.8c0.3 0 0.5 0.2 0.5 0.5v26h14.7c0.3 0 0.5 0.1 0.5 0.5v1.6c0 0.3-0.2 0.5-0.5 0.5h-17.1q-0.6 0-0.6-0.6v-28c0-0.3 0.2-0.5 0.5-0.5z"/>
				<path id="&lt;Path&gt;" class="s0" d="m273.1 251.8c0.4 0 0.5 0.2 0.5 0.5v1.6c0 0.4-0.1 0.5-0.5 0.5h-15.1v11.2h13.7q0.6 0 0.5 0.4v1.7q0.1 0.5-0.5 0.5h-13.7v10.1h15.1c0.4 0 0.5 0.1 0.5 0.5v1.6c0 0.3-0.1 0.5-0.5 0.5h-17.5q-0.6 0-0.6-0.6v-27.9q0-0.6 0.6-0.6z"/>
				<path id="&lt;Path&gt;" class="s0" d="m296.3 252c0.3 0.1 0.4 0.2 0.4 0.4v1.4q0 0.4-0.4 0.4h-8.6c-3.8 0-5.7 1.2-5.7 4v0.6c0 2.1 0.5 3.3 3.2 4.4l8.8 3.7c3.7 1.6 4.2 4.2 4.2 6.6v1.1c0 6-4.8 6.5-9.8 6.5-2.7 0-6.5-0.1-9.4-0.4q-0.4 0-0.4-0.5v-1.3c0-0.3 0.2-0.4 0.4-0.4h10.3c3.6 0 6-0.8 6-3.9v-0.9c0-1.7-0.4-3.5-3.1-4.6l-9.5-3.9c-3.2-1.3-3.7-3.6-3.7-6.3v-0.9c0-5.5 4.3-6.4 9.7-6.4 2.7 0 4.6 0.1 7.6 0.4z"/>
				<path id="&lt;Compound Path&gt;" fill-rule="evenodd" class="s0" d="m349.3 266.3c0 10.6-3 14.8-11.8 14.8-2.9 0-8.1-0.1-10.5-0.2-0.4 0-0.5-0.1-0.5-0.5v-28.1c0-0.4 0.1-0.4 0.5-0.5 2.4-0.1 7.6-0.2 10.5-0.2 8.8 0 11.8 4.2 11.8 14.7zm-19.8-12.1v24.3h8c6.6 0 8.8-3.4 8.8-12.2 0-8.6-2.3-12.1-9.2-12.1z"/>
				<path id="&lt;Path&gt;" class="s0" d="m374.3 251.8c0.3 0 0.5 0.2 0.5 0.5v1.6c0 0.4-0.2 0.5-0.5 0.5h-15.2v11.2h13.8q0.5 0 0.5 0.4v1.7q0 0.5-0.5 0.5h-13.8v10.1h15.2c0.3 0 0.5 0.1 0.5 0.5v1.6c0 0.3-0.2 0.5-0.5 0.5h-17.6q-0.6 0-0.6-0.6v-27.9q0-0.6 0.6-0.6z"/>
				<path id="&lt;Compound Path&gt;" fill-rule="evenodd" class="s0" d="m416.7 256.1l6.7 24.3c0.1 0.4 0 0.5-0.4 0.5h-2.2c-0.3 0-0.4-0.1-0.4-0.5l-2.6-9h-12.2l-2.5 9c-0.2 0.4-0.2 0.5-0.5 0.5h-2.2c-0.4 0-0.5-0.1-0.4-0.5l6.9-24.3c1.1-3.9 1.6-4.5 4.8-4.5 3.5 0 4 0.6 5 4.5zm-7 0.7l-3.4 12h10.8l-3.2-12c-0.6-2.3-0.7-2.6-2.2-2.6-1.2 0-1.4 0.3-2 2.6z"/>
				<path id="&lt;Compound Path&gt;" fill-rule="evenodd" class="s0" d="m448.8 260.8c0 6.4-1.7 8.3-6.6 8.9l6.7 10.5c0.3 0.4 0.1 0.7-0.4 0.7h-1.7c-0.7 0-1-0.2-1.3-0.7l-6.6-10.3h-6.8v10.5c0 0.4-0.1 0.5-0.5 0.5h-1.9c-0.4 0-0.6-0.1-0.6-0.5v-28.1c0-0.4 0.2-0.4 0.6-0.5 2.4-0.1 5.5-0.2 7.3-0.2 8.9 0 11.8 1.2 11.8 9.2zm-16.7-6.6v13.1h4.7c7.1 0 9-0.3 9-6.4 0-6-1.9-6.7-9-6.7z"/>
				<path id="&lt;Compound Path&gt;" fill-rule="evenodd" class="s0" d="m469.6 256.1l6.6 24.3c0.1 0.4 0 0.5-0.4 0.5h-2.2c-0.3 0-0.3-0.1-0.4-0.5l-2.5-9h-12.3l-2.5 9c-0.1 0.4-0.2 0.5-0.5 0.5h-2.2c-0.4 0-0.5-0.1-0.4-0.5l6.9-24.3c1.1-3.9 1.6-4.5 4.8-4.5 3.5 0 4 0.6 5.1 4.5zm-7.1 0.7l-3.4 12h10.9l-3.3-12c-0.6-2.3-0.7-2.6-2.2-2.6-1.2 0-1.3 0.3-2 2.6z"/>
				<path id="&lt;Path&gt;" class="s0" d="m499.6 251.9c0.3 0 0.5 0.2 0.5 0.5v1.3c0 0.4-0.2 0.5-0.5 0.5h-7.1c-7.2 0-8.6 2.8-8.6 12.2 0 9.4 1.4 12.1 8.6 12.1h6.4v-11.4c0-0.3 0.2-0.5 0.5-0.5h1.8c0.3 0 0.5 0.2 0.5 0.5v12.1c0 0.3-0.1 0.5-0.1 0.6-1.1 1.4-6.4 1.3-9.1 1.3-9.3 0-11.5-3.4-11.5-14.7 0-11.4 2.2-14.8 11.5-14.8 2.1 0 5.2 0.1 7.1 0.3z"/>
				<path id="&lt;Path&gt;" class="s0" d="m559.9 251.8q0.5 0 0.5 0.5v28.1q0 0.5-0.5 0.5h-1.9c-0.4 0-0.7 0-1.1-0.6l-16.4-24.6v24.7c0 0.3-0.2 0.5-0.5 0.5h-2c-0.3 0-0.5-0.2-0.5-0.5v-28.1c0-0.3 0.2-0.5 0.5-0.5h2.1c1.1 0 1.3 0.1 1.8 0.9l15.5 23.3v-23.7q0-0.5 0.6-0.5z"/>
				<path id="&lt;Path&gt;" class="s0" d="m4.5 169.6h17.1v-169h-17.1z"/>
				<path id="&lt;Path&gt;" class="s0" d="m352.5 0.6l-71.7 124-71-122.7-0.7-1.3h-14.2v137.3l-106.7-136.3-0.8-1h-13.9v169h17.1v-137.3l107.7 137.3h13.5v-132.5l64.4 110.7h8.9l64.4-111.2 0.2 133h16.9l-0.2-169z"/>
				<path id="&lt;Path&gt;" class="s0" d="m482.6 0.6h-15.2l-77.8 169h18.7l21.5-47.6 45.1-99.3 46 101.3 20.8 45.6h18.7z"/>
			</g>
			<filter id="f1">
				<feFlood flood-color="#ffffff" flood-opacity="1" />
				<feBlend mode="normal" in2="SourceGraphic"/>
				<feComposite in2="SourceAlpha" operator="in" />
			</filter>
			<g id="Csic" filter="url(#f1)">
				<path id="&lt;Path&gt;" class="s1" d="m226.6 370.5l-0.4 0.8-0.1-0.1q0-0.1 0-0.1 0-0.1-0.4-0.3-0.6-0.3-1.2-0.3-0.9 0-1.5 0.5-0.5 0.5-0.5 1.3 0 0.8 0.6 1.3 0.5 0.5 1.4 0.5 0.8 0 1.4-0.5 0.3-0.2 0.3-0.3 0 0-0.1-0.1l0.1-0.1 0.5 0.7v0.1q-0.1-0.1-0.2-0.1 0 0-0.1 0.1-0.3 0.2-0.5 0.3-0.2 0.1-0.4 0.2-0.5 0.1-1 0.1-1.1 0-1.8-0.6-0.7-0.6-0.7-1.6 0-0.8 0.4-1.4 0.7-0.8 2.1-0.8 0.9-0.1 1.8 0.4 0.1 0.1 0.1 0.1 0 0 0.1-0.2z"/>
				<path id="&lt;Compound Path&gt;" fill-rule="evenodd" class="s1" d="m229.5 370.8q1 0 1.6 0.5 0.6 0.5 0.6 1.4 0 0.5-0.3 1-0.6 0.8-1.9 0.8-0.9 0-1.5-0.5-0.6-0.5-0.6-1.3 0-0.6 0.3-1 0.3-0.5 0.9-0.7 0.4-0.2 0.9-0.2zm0 0.4q-0.8 0-1.2 0.5-0.4 0.4-0.4 1 0 0.6 0.4 1 0.4 0.5 1.2 0.5 0.8 0 1.3-0.5 0.4-0.4 0.4-1 0-0.6-0.4-1-0.5-0.5-1.3-0.5z"/>
				<path id="&lt;Path&gt;" class="s1" d="m232.9 371.5v2.6q0 0.1 0.1 0.2 0 0 0.1 0.1v0.1h-0.8v-0.1q0.2-0.1 0.2-0.1 0-0.1 0.1-0.2v-2.8q-0.1-0.2-0.1-0.2 0-0.1-0.2-0.1v-0.1h1.2v0.1q-0.2 0-0.2 0.2 0 0 0.2 0.2l2.1 2.3v-2.4q0-0.2-0.1-0.2 0-0.1-0.2-0.1v-0.1h0.8v0.1q-0.1 0-0.1 0.1-0.1 0-0.1 0.2v2.8q0 0.1 0.1 0.2 0 0 0.1 0.1v0.1h-0.9v-0.1q0.2-0.1 0.2-0.2 0 0-0.2-0.2z"/>
				<path id="&lt;Path&gt;" class="s1" d="m240.3 371.1l-0.4 0.7-0.1-0.1q0.1-0.1 0.1-0.1 0-0.1-0.2-0.2-0.5-0.2-1.1-0.2-0.5 0-0.9 0.2-0.3 0.2-0.3 0.5 0 0.2 0.1 0.3 0.1 0.1 0.2 0.2 0.2 0 0.3 0 0.2 0 0.8 0.1 0.5 0 0.7 0 0.3 0.1 0.4 0.2 0.2 0.1 0.3 0.3 0.1 0.2 0.1 0.4 0 0.5-0.4 0.8-0.5 0.3-1.3 0.3-0.3 0-0.8-0.1-0.4-0.1-0.8-0.3 0 0-0.1 0 0 0-0.1 0.1l-0.1-0.1 0.4-0.7 0.1 0.1q0 0 0 0 0 0.1 0 0.1 0 0.1 0.3 0.3 0.5 0.3 1.1 0.3 0.6 0 0.9-0.2 0.2-0.1 0.3-0.3 0.1-0.1 0.1-0.3 0-0.1-0.1-0.2-0.1-0.2-0.2-0.2-0.1-0.1-0.3-0.1-0.2 0-0.6 0-0.5 0-0.8-0.1-0.2 0-0.4-0.1-0.2-0.1-0.4-0.3-0.2-0.2-0.1-0.5 0-0.5 0.4-0.8 0.5-0.3 1.2-0.3 0.7 0 1.4 0.3 0.1 0.1 0.1 0.1 0 0 0.1-0.2z"/>
				<path id="&lt;Path&gt;" class="s1" d="m241.6 372.8v1.3h2.2q0.1 0 0.2 0 0-0.1 0-0.2h0.1v0.8h-0.1q0-0.1 0-0.2-0.1 0-0.2 0h-2.9v-0.1q0.1-0.1 0.2-0.1 0-0.1 0-0.2v-2.8q0-0.2 0-0.2-0.1-0.1-0.2-0.1v-0.1h2.9q0.1 0 0.1 0 0.1-0.1 0.1-0.2h0.1v0.8h-0.1q0-0.2-0.1-0.2 0 0-0.1-0.1h-2.2v1.3h1.4q0.1-0.1 0.2-0.1 0 0 0-0.1h0.1v0.7h-0.1q0-0.1-0.1-0.2 0 0-0.1 0z"/>
				<path id="&lt;Path&gt;" class="s1" d="m244.4 374.4l0.4-0.8h0.1q-0.1 0.1-0.1 0.2 0 0 0.1 0.1 0.2 0.1 0.4 0.2 0.3 0.1 0.6 0.1 0.2 0 0.4-0.1 0.2-0.1 0.2-0.3 0.1-0.1 0.1-0.6v-1.9q0-0.2 0-0.2-0.1-0.1-0.2-0.1v-0.1h0.9v0.1q-0.1 0-0.2 0.1 0 0 0 0.2v2q0 0.3-0.1 0.5 0 0.2-0.1 0.4-0.2 0.1-0.4 0.2-0.3 0.1-0.6 0.1-0.2 0-0.6 0-0.3-0.1-0.6-0.2 0 0-0.1 0 0 0-0.1 0.1z"/>
				<path id="&lt;Compound Path&gt;" fill-rule="evenodd" class="s1" d="m250 370.8q1 0 1.6 0.5 0.6 0.5 0.6 1.4 0 0.5-0.3 1-0.6 0.8-1.9 0.8-0.9 0-1.5-0.5-0.6-0.5-0.6-1.3 0-0.6 0.3-1 0.3-0.5 0.9-0.7 0.4-0.2 0.9-0.2zm0 0.4q-0.7 0-1.2 0.5-0.4 0.4-0.4 1 0 0.6 0.4 1 0.5 0.5 1.2 0.5 0.8 0 1.3-0.5 0.4-0.4 0.4-1 0-0.6-0.4-1-0.5-0.5-1.3-0.5z"/>
				<path id="&lt;Path&gt;" class="s1" d="m258.6 370.4l-0.4 0.8h-0.1q0.1-0.2 0.1-0.2 0-0.1-0.3-0.2-0.6-0.3-1.3-0.3-0.6 0-1.1 0.2-0.2 0.1-0.3 0.3-0.1 0.2-0.1 0.3 0 0.2 0.1 0.3 0.1 0.2 0.2 0.3 0.2 0 0.4 0.1 0.3 0 0.8 0 0.7 0 1 0.1 0.4 0 0.6 0.1 0.5 0.3 0.5 1 0 0.5-0.5 0.9-0.5 0.4-1.5 0.4-0.5 0-0.9-0.1-0.5-0.1-1-0.4-0.2-0.1-0.2-0.1-0.1 0-0.2 0.2v-0.1l0.4-0.8 0.1 0.1q0 0.1 0 0.1 0 0.1 0.4 0.3 0.3 0.2 0.7 0.3 0.3 0.1 0.7 0.1 0.8 0 1.2-0.3 0.3-0.3 0.3-0.6 0-0.4-0.5-0.6-0.1 0-0.3-0.1-0.2 0-0.9 0-0.6 0-0.9-0.1-0.3 0-0.5-0.2-0.3-0.1-0.4-0.3-0.1-0.3-0.1-0.5 0-0.5 0.3-0.8 0.3-0.3 0.7-0.4 0.5-0.2 1-0.1 0.5 0 0.8 0 0.4 0.1 0.9 0.3 0.1 0.1 0.1 0.1 0.1 0 0.2-0.1z"/>
				<path id="&lt;Path&gt;" class="s1" d="m259.9 371.3v1.8q0 0.4 0.1 0.6 0 0.1 0.1 0.2 0.3 0.3 1 0.3 0.8 0 1.1-0.3 0.1-0.1 0.1-0.3 0-0.1 0-0.5v-1.8q0-0.2 0-0.2-0.1-0.1-0.2-0.1v-0.1h0.8v0.1q-0.1 0-0.2 0.1 0 0 0 0.2v1.9q0 0.5-0.1 0.7-0.1 0.3-0.5 0.5-0.4 0.1-1 0.1-0.9 0-1.3-0.3-0.2-0.2-0.3-0.4 0-0.2 0-0.6v-1.9q0-0.2-0.1-0.2 0-0.1-0.1-0.1v-0.1h0.8v0.1q-0.1 0-0.1 0.1-0.1 0-0.1 0.2z"/>
				<path id="&lt;Compound Path&gt;" fill-rule="evenodd" class="s1" d="m264.3 372.9v1.2q0 0.1 0 0.2 0 0 0.1 0.1v0.1h-0.8v-0.1q0.1-0.1 0.2-0.1 0-0.1 0-0.2v-2.9q0-0.1 0-0.1-0.1-0.1-0.2-0.1v-0.1h2q0.4 0 0.6 0 0.2 0.1 0.3 0.2 0.2 0.1 0.3 0.3 0.1 0.2 0.1 0.5 0 0.2-0.1 0.5-0.1 0.2-0.3 0.3-0.1 0.1-0.3 0.1-0.2 0.1-0.6 0.1zm0-0.4h1.2q0.4 0 0.5 0 0.2 0 0.3-0.1 0.2-0.2 0.2-0.5 0-0.4-0.2-0.5-0.1-0.1-0.3-0.1-0.1-0.1-0.5-0.1h-1.2z"/>
				<path id="&lt;Path&gt;" class="s1" d="m268.2 372.8v1.3h2.1q0.2 0 0.2 0 0.1-0.1 0.1-0.2h0.1v0.8h-0.1q0-0.1-0.1-0.2 0 0-0.2 0h-2.8v-0.1q0.1-0.1 0.2-0.1 0-0.1 0-0.2v-2.8q0-0.2 0-0.2-0.1-0.1-0.2-0.1v-0.1h2.8q0.2 0 0.2 0 0.1-0.1 0.1-0.2h0.1v0.8h-0.1q0-0.2-0.1-0.2 0 0-0.2-0.1h-2.1v1.3h1.3q0.2-0.1 0.2-0.1 0.1 0 0.1-0.1h0.1v0.7h-0.1q0-0.1-0.1-0.2 0 0-0.2 0z"/>
				<path id="&lt;Compound Path&gt;" fill-rule="evenodd" class="s1" d="m272 372.8v1.3q0 0.1 0.1 0.2 0 0 0.1 0.1v0.1h-0.8v-0.1q0.1-0.1 0.1-0.1 0.1-0.1 0.1-0.2v-2.8q0-0.2-0.1-0.2 0-0.1-0.1-0.1v-0.1h2.1q0.3 0 0.6 0.1 0.2 0 0.4 0.1 0.3 0.3 0.3 0.8 0 0.4-0.2 0.6-0.3 0.3-0.8 0.3l0.9 1.4q0.1 0.1 0.1 0.1 0 0.1 0.2 0.1v0.1h-0.9v-0.1q0.1 0 0.1-0.1 0 0-0.1-0.2l-0.8-1.3zm0-0.3h1.4q0.3 0 0.5 0 0.1 0 0.2-0.1 0.3-0.1 0.3-0.5 0-0.3-0.3-0.5-0.2-0.2-0.7-0.2h-1.4z"/>
				<path id="&lt;Path&gt;" class="s1" d="m275.7 374.1v-2.8q0-0.2 0-0.2 0-0.1-0.2-0.1v-0.1h0.9v0.1q-0.1 0-0.2 0.1 0 0 0 0.2v2.8q0 0.1 0 0.2 0.1 0 0.2 0.1v0.1h-0.9v-0.1q0.2-0.1 0.2-0.1 0-0.1 0-0.2z"/>
				<path id="&lt;Compound Path&gt;" fill-rule="evenodd" class="s1" d="m279.2 370.8q1 0 1.5 0.5 0.7 0.5 0.7 1.4 0 0.5-0.4 1-0.5 0.8-1.8 0.8-0.9 0-1.5-0.5-0.6-0.5-0.6-1.3 0-0.6 0.3-1 0.3-0.5 0.9-0.7 0.4-0.2 0.9-0.2zm0 0.4q-0.8 0-1.2 0.5-0.5 0.4-0.5 1 0 0.6 0.5 1 0.4 0.5 1.2 0.5 0.8 0 1.3-0.5 0.4-0.4 0.4-1 0-0.6-0.4-1-0.5-0.5-1.3-0.5z"/>
				<path id="&lt;Compound Path&gt;" fill-rule="evenodd" class="s1" d="m282.7 372.8v1.3q0 0.1 0 0.2 0.1 0 0.2 0.1v0.1h-0.9v-0.1q0.2-0.1 0.2-0.1 0-0.1 0-0.2v-2.8q0-0.2 0-0.2 0-0.1-0.2-0.1v-0.1h2.1q0.4 0 0.6 0.1 0.3 0 0.4 0.1 0.4 0.3 0.4 0.8 0 0.4-0.3 0.6-0.2 0.3-0.7 0.3l0.9 1.4q0 0.1 0.1 0.1 0 0.1 0.1 0.1v0.1h-0.9v-0.1q0.2 0 0.2-0.1 0 0-0.1-0.2l-0.8-1.3zm0-0.3h1.3q0.3 0 0.5 0 0.2 0 0.3-0.1 0.2-0.1 0.2-0.5 0-0.3-0.2-0.5-0.2-0.2-0.7-0.2h-1.4z"/>
				<path id="&lt;Compound Path&gt;" fill-rule="evenodd" class="s1" d="m288 374.1v-2.8q0-0.2 0-0.2-0.1-0.1-0.2-0.1v-0.1h1.8q0.7 0 1.1 0.2 0.4 0.2 0.7 0.7 0.2 0.4 0.2 0.9 0 0.5-0.3 1-0.3 0.4-0.6 0.6-0.4 0.2-1.1 0.2h-1.8v-0.1q0.1-0.1 0.2-0.1 0-0.1 0-0.2zm0.5 0h1.1q0.6 0 0.9-0.2 0.3-0.1 0.5-0.5 0.1-0.3 0.1-0.7 0-0.7-0.3-1.1-0.2-0.2-0.5-0.3-0.3-0.1-0.7-0.1h-1.1z"/>
				<path id="&lt;Path&gt;" class="s1" d="m292.9 372.8v1.3h2.2q0.1 0 0.2 0 0-0.1 0.1-0.2h0.1v0.8h-0.1q-0.1-0.1-0.1-0.2-0.1 0-0.2 0h-2.9v-0.1q0.2-0.1 0.2-0.1 0.1-0.1 0.1-0.2v-2.8q0-0.2-0.1-0.2 0-0.1-0.2-0.1v-0.1h2.9q0.1 0 0.2 0 0-0.1 0.1-0.2v0.8q-0.1-0.2-0.1-0.2-0.1 0-0.2-0.1h-2.2v1.3h1.4q0.1-0.1 0.2-0.1 0 0 0.1-0.1h0.1v0.7h-0.1q-0.1-0.1-0.1-0.2-0.1 0-0.2 0z"/>
				<path id="&lt;Path&gt;" class="s1" d="m298 374.1v-3.6q0-0.1 0-0.2 0 0-0.2-0.1v-0.1h0.9v0.1q-0.1 0.1-0.1 0.1-0.1 0.1-0.1 0.2v3.6q0 0.1 0.1 0.2 0 0 0.1 0.1v0.1h-0.9v-0.1q0.2-0.1 0.2-0.1 0-0.1 0-0.2z"/>
				<path id="&lt;Path&gt;" class="s1" d="m300.2 371.5v2.6q0 0.1 0 0.2 0.1 0 0.2 0.1v0.1h-0.8v-0.1q0.1-0.1 0.2-0.1 0-0.1 0-0.2v-2.8q0-0.2 0-0.2-0.1-0.1-0.2-0.1v-0.1h1.2v0.1q-0.2 0-0.2 0.2 0 0 0.1 0.2l2.1 2.3v-2.4q0-0.2 0-0.2-0.1-0.1-0.2-0.1v-0.1h0.8v0.1q-0.1 0-0.2 0.1 0 0 0 0.2v2.8q0 0.1 0 0.2 0.1 0 0.2 0.1v0.1h-0.9v-0.1q0.1-0.1 0.1-0.2 0 0-0.1-0.2z"/>
				<path id="&lt;Path&gt;" class="s1" d="m305.9 374l1.1-2.7q0.1-0.1 0.1-0.1 0-0.2-0.2-0.2v-0.1h0.8v0.1q-0.1 0-0.2 0.1 0 0.1-0.1 0.4l-1.1 2.4q-0.1 0.2-0.1 0.3 0 0.2 0.2 0.2v0.1h-1.1v-0.1q0.2-0.1 0.2-0.2 0-0.1-0.1-0.3l-1.1-2.4q-0.2-0.3-0.2-0.4-0.1-0.1-0.2-0.1v-0.1h1v0.1q-0.2 0-0.2 0.2 0 0 0 0.1z"/>
				<path id="&lt;Path&gt;" class="s1" d="m308.9 372.8v1.3h2.2q0.1 0 0.2 0 0-0.1 0.1-0.2h0.1v0.8h-0.1q-0.1-0.1-0.1-0.2-0.1 0-0.2 0h-2.9v-0.1q0.2-0.1 0.2-0.1 0-0.1 0-0.2v-2.8q0-0.2 0-0.2 0-0.1-0.2-0.1v-0.1h2.9q0.1 0 0.2 0 0-0.1 0-0.2h0.1v0.8h-0.1q0-0.2 0-0.2-0.1 0-0.2-0.1h-2.2v1.3h1.4q0.1-0.1 0.2-0.1 0 0 0.1-0.1v0.7q-0.1-0.1-0.1-0.2-0.1 0-0.2 0z"/>
				<path id="&lt;Path&gt;" class="s1" d="m315.5 371.1l-0.4 0.7v-0.1q0-0.1 0-0.1 0-0.1-0.2-0.2-0.5-0.2-1.1-0.2-0.5 0-0.8 0.2-0.4 0.2-0.4 0.5 0 0.2 0.1 0.3 0.1 0.1 0.2 0.2 0.2 0 0.3 0 0.2 0 0.8 0.1 0.5 0 0.7 0 0.3 0.1 0.4 0.2 0.2 0.1 0.3 0.3 0.1 0.2 0.2 0.4 0 0.5-0.5 0.8-0.4 0.3-1.2 0.3-0.4 0-0.9-0.1-0.4-0.1-0.8-0.3 0 0 0 0-0.1 0-0.2 0.1l-0.1-0.1 0.4-0.7 0.1 0.1q0 0 0 0 0 0.1 0 0.1 0 0.1 0.3 0.3 0.6 0.3 1.1 0.3 0.6 0 0.9-0.2 0.2-0.1 0.3-0.3 0.1-0.1 0.1-0.3 0-0.1-0.1-0.2-0.1-0.2-0.2-0.2-0.1-0.1-0.3-0.1-0.1 0-0.6 0-0.5 0-0.7-0.1-0.3 0-0.5-0.1-0.2-0.1-0.4-0.3-0.1-0.2-0.1-0.5 0-0.5 0.4-0.8 0.5-0.3 1.2-0.3 0.7 0 1.4 0.3 0.1 0.1 0.1 0.1 0 0 0.1-0.2z"/>
				<path id="&lt;Path&gt;" class="s1" d="m317.9 371.3v2.8q0 0.1 0 0.2 0.1 0 0.2 0.1v0.1h-0.9v-0.1q0.2-0.1 0.2-0.1 0-0.1 0-0.2v-2.8h-1.1q-0.1 0-0.2 0-0.1 0.1-0.1 0.2h-0.1v-0.8h0.1q0 0.1 0.1 0.2 0.1 0 0.2 0h2.8q0.1 0 0.1 0 0.1-0.1 0.1-0.2h0.1v0.8h-0.1q0-0.1-0.1-0.2 0 0-0.1 0z"/>
				<path id="&lt;Path&gt;" class="s1" d="m320.1 374.1v-2.8q-0.1-0.2-0.1-0.2 0-0.1-0.2-0.1v-0.1h0.9v0.1q-0.1 0-0.1 0.1-0.1 0-0.1 0.2v2.8q0 0.1 0.1 0.2 0 0 0.1 0.1v0.1h-0.9v-0.1q0.2-0.1 0.2-0.1 0-0.1 0.1-0.2z"/>
				<path id="&lt;Path&gt;" class="s1" d="m325.3 371.2l-0.4 0.7h-0.1q0-0.1 0-0.2 0 0-0.3-0.2-0.5-0.3-1-0.3-0.7 0-1.1 0.4-0.5 0.4-0.5 1.1 0 0.6 0.4 1.1 0.5 0.4 1.2 0.4 0.4 0 0.7-0.1 0.3-0.1 0.6-0.3v-0.7h-0.8q-0.2 0-0.2 0-0.1 0.1-0.1 0.2h-0.1v-0.7h0.1q0 0.1 0.1 0.1 0 0.1 0.2 0.1h1.4q-0.2 0.1-0.2 0.1 0 0.1 0 0.2v0.4q0 0.1 0 0.2 0 0 0.2 0.1-0.9 0.7-2 0.7-0.8 0-1.4-0.4-0.3-0.3-0.4-0.6-0.2-0.4-0.2-0.8 0-0.6 0.4-1.1 0.3-0.4 0.8-0.6 0.4-0.2 0.9-0.2 0.4 0 0.7 0.1 0.3 0.1 0.8 0.4 0 0 0.1 0 0 0 0.1-0.1z"/>
				<path id="&lt;Compound Path&gt;" fill-rule="evenodd" class="s1" d="m328.5 373.5h-1.9l-0.3 0.6q0 0.1 0 0.1 0 0.1 0.1 0.2v0.1h-0.8v-0.1q0.1 0 0.2-0.1 0-0.1 0.1-0.3l1.2-2.6q0.1-0.2 0.1-0.3 0-0.1-0.1-0.1v-0.1h1v0.1q-0.2 0-0.2 0.1 0 0.1 0.2 0.4l1.1 2.4q0.1 0.3 0.2 0.4 0.1 0.1 0.2 0.1v0.1h-0.9v-0.1q0.1-0.1 0.1-0.1 0-0.1-0.1-0.2zm-0.1-0.4l-0.8-1.7-0.8 1.7z"/>
				<path id="&lt;Path&gt;" class="s1" d="m333.8 371.2l-0.4 0.7-0.1-0.1q0-0.1 0-0.1 0-0.1-0.1-0.2-0.5-0.3-1.2-0.3-0.7 0-1.1 0.4-0.5 0.4-0.5 1.1 0 0.7 0.5 1.1 0.5 0.4 1.1 0.4 0.6 0 1.2-0.4 0.2-0.2 0.2-0.3 0 0-0.1-0.1l0.1-0.1 0.5 0.7h-0.1q-0.1-0.1-0.1-0.1-0.1 0-0.1 0.1-0.4 0.3-0.8 0.4-0.4 0.1-0.9 0.1-0.8 0-1.4-0.4-0.3-0.2-0.4-0.6-0.2-0.4-0.2-0.8 0-0.9 0.7-1.4 0.5-0.5 1.4-0.5 0.7 0 1.4 0.4 0.1 0 0.1 0 0.1 0 0.2-0.1z"/>
				<path id="&lt;Path&gt;" class="s1" d="m334.7 374.1v-2.8q0-0.2 0-0.2 0-0.1-0.2-0.1v-0.1h0.9v0.1q-0.1 0-0.2 0.1 0 0 0 0.2v2.8q0 0.1 0 0.2 0.1 0 0.2 0.1v0.1h-0.9v-0.1q0.2-0.1 0.2-0.1 0-0.1 0-0.2z"/>
				<path id="&lt;Compound Path&gt;" fill-rule="evenodd" class="s1" d="m338.2 370.8q1 0 1.5 0.5 0.7 0.5 0.7 1.4 0 0.5-0.3 1-0.6 0.8-1.9 0.8-0.9 0-1.5-0.5-0.6-0.5-0.6-1.3 0-0.6 0.3-1 0.3-0.5 0.9-0.7 0.4-0.2 0.9-0.2zm0 0.4q-0.8 0-1.2 0.5-0.5 0.4-0.4 1-0.1 0.6 0.4 1 0.4 0.5 1.2 0.5 0.8 0 1.3-0.5 0.4-0.4 0.4-1 0-0.6-0.4-1-0.5-0.5-1.3-0.5z"/>
				<path id="&lt;Path&gt;" class="s1" d="m341.6 371.5v2.6q0 0.1 0.1 0.2 0 0 0.1 0.1v0.1h-0.8v-0.1q0.2-0.1 0.2-0.1 0-0.1 0-0.2v-2.8q0-0.2 0-0.2 0-0.1-0.2-0.1v-0.1h1.2v0.1q-0.2 0-0.2 0.2 0 0 0.1 0.2l2.1 2.3v-2.4q0-0.2 0-0.2 0-0.1-0.2-0.1v-0.1h0.8v0.1q-0.1 0-0.1 0.1-0.1 0-0.1 0.2v2.8q0 0.1 0.1 0.2 0 0 0.1 0.1v0.1h-0.9v-0.1q0.2-0.1 0.2-0.2 0 0-0.2-0.2z"/>
				<path id="&lt;Path&gt;" class="s1" d="m346.2 372.8v1.3h2.2q0.2 0 0.2 0 0.1-0.1 0.1-0.2h0.1v0.8h-0.1q0-0.1-0.1-0.2 0 0-0.2 0h-2.8v-0.1q0.1-0.1 0.2-0.1 0-0.1 0-0.2v-2.8q0-0.2-0.1-0.2 0-0.1-0.1-0.1v-0.1h2.8q0.2 0 0.2 0 0.1-0.1 0.1-0.2h0.1v0.8h-0.1q0-0.2-0.1-0.2 0 0-0.2-0.1h-2.2v1.3h1.4q0.2-0.1 0.2-0.1 0.1 0 0.1-0.1h0.1v0.7h-0.1q0-0.1-0.1-0.2 0 0-0.2 0z"/>
				<path id="&lt;Path&gt;" class="s1" d="m352.8 371.1l-0.3 0.7-0.1-0.1q0-0.1 0-0.1 0-0.1-0.2-0.2-0.4-0.2-1-0.2-0.5 0-0.9 0.2-0.3 0.2-0.3 0.5 0 0.2 0 0.3 0.1 0.1 0.3 0.2 0.1 0 0.3 0 0.2 0 0.7 0.1 0.5 0 0.8 0 0.2 0.1 0.4 0.2 0.2 0.1 0.3 0.3 0.1 0.2 0.1 0.4 0 0.5-0.4 0.8-0.5 0.3-1.3 0.3-0.4 0-0.8-0.1-0.5-0.1-0.8-0.3-0.1 0-0.1 0 0 0-0.1 0.1l-0.1-0.1 0.4-0.7 0.1 0.1q0 0 0 0-0.1 0.1-0.1 0.1 0 0.1 0.4 0.3 0.5 0.3 1.1 0.3 0.5 0 0.9-0.2 0.2-0.1 0.3-0.3 0.1-0.1 0.1-0.3 0-0.1-0.1-0.2-0.1-0.2-0.3-0.2-0.1-0.1-0.2-0.1-0.2 0-0.6 0-0.6 0-0.8-0.1-0.2 0-0.4-0.1-0.3-0.1-0.4-0.3-0.2-0.2-0.2-0.5 0-0.5 0.5-0.8 0.4-0.3 1.2-0.3 0.7 0 1.3 0.3 0.1 0.1 0.1 0.1 0.1 0 0.2-0.2z"/>
				<path id="&lt;Path&gt;" class="s1" d="m359.8 370.5l-0.5 0.8-0.1-0.1q0-0.1 0-0.1 0-0.1-0.4-0.3-0.5-0.3-1.2-0.3-0.9 0-1.4 0.5-0.6 0.5-0.6 1.3 0 0.8 0.6 1.3 0.6 0.5 1.4 0.5 0.8 0 1.4-0.5 0.3-0.2 0.3-0.3 0 0-0.1-0.1l0.1-0.1 0.6 0.7-0.1 0.1q-0.1-0.1-0.1-0.1-0.1 0-0.2 0.1-0.3 0.2-0.4 0.3-0.2 0.1-0.5 0.2-0.4 0.1-1 0.1-1.1 0-1.8-0.6-0.7-0.6-0.7-1.6 0-0.8 0.4-1.4 0.7-0.8 2.2-0.8 0.9-0.1 1.8 0.4 0 0.1 0 0.1 0.1 0 0.2-0.2z"/>
				<path id="&lt;Path&gt;" class="s1" d="m360.8 374.1v-2.8q0-0.2 0-0.2-0.1-0.1-0.2-0.1v-0.1h0.9v0.1q-0.1 0-0.2 0.1 0 0 0 0.2v2.8q0 0.1 0 0.2 0.1 0 0.2 0.1v0.1h-0.9v-0.1q0.1-0.1 0.2-0.1 0-0.1 0-0.2z"/>
				<path id="&lt;Path&gt;" class="s1" d="m362.9 372.8v1.3h2.2q0.1 0 0.2 0 0-0.1 0.1-0.2h0.1v0.8h-0.1q-0.1-0.1-0.1-0.2-0.1 0-0.2 0h-2.9v-0.1q0.2-0.1 0.2-0.1 0-0.1 0-0.2v-2.8q0-0.2 0-0.2 0-0.1-0.2-0.1v-0.1h2.9q0.1 0 0.2 0 0-0.1 0-0.2h0.1v0.8h-0.1q0-0.2 0-0.2-0.1 0-0.2-0.1h-2.2v1.3h1.4q0.1-0.1 0.2-0.1 0 0 0.1-0.1v0.7q-0.1-0.1-0.1-0.2-0.1 0-0.2 0z"/>
				<path id="&lt;Path&gt;" class="s1" d="m366.7 371.5v2.6q0 0.1 0 0.2 0.1 0 0.2 0.1v0.1h-0.8v-0.1q0.1-0.1 0.2-0.1 0-0.1 0-0.2v-2.8q0-0.2 0-0.2-0.1-0.1-0.2-0.1v-0.1h1.2v0.1q-0.2 0-0.2 0.2 0 0 0.1 0.2l2.1 2.3v-2.4q0-0.2 0-0.2-0.1-0.1-0.2-0.1v-0.1h0.8v0.1q-0.1 0-0.2 0.1 0 0 0 0.2v2.8q0 0.1 0 0.2 0.1 0 0.2 0.1v0.1h-0.9v-0.1q0.1-0.1 0.1-0.2 0 0-0.1-0.2z"/>
				<path id="&lt;Path&gt;" class="s1" d="m372.3 371.3v2.8q0 0.1 0 0.2 0.1 0 0.2 0.1v0.1h-0.9v-0.1q0.2-0.1 0.2-0.1 0-0.1 0-0.2v-2.8h-1.1q-0.2 0-0.2 0-0.1 0.1-0.1 0.2h-0.1v-0.8h0.1q0 0.1 0.1 0.2 0 0 0.2 0h2.8q0.1 0 0.2 0 0-0.1 0-0.2h0.1v0.8h-0.1q0-0.1 0-0.2-0.1 0-0.2 0z"/>
				<path id="&lt;Compound Path&gt;" class="s1" d="m374.4 374.1v-2.8q0.1-0.2 0-0.2 0-0.1-0.1-0.1v-0.1h0.8v0.1q-0.1 0-0.2 0.1 0 0 0 0.2v2.8q0 0.1 0 0.2 0.1 0 0.2 0.1v0.1h-0.8v-0.1q0.1-0.1 0.1-0.1 0.1-0.1 0-0.2zm1.1-4.5v0.1q-0.2 0-0.2 0.1l-0.4 0.5q0 0 0 0.1 0 0 0 0v0.1h-0.5v-0.1q0.1 0 0.1 0 0 0 0.1-0.1l0.2-0.5q0 0 0-0.1 0 0-0.1 0v-0.1z"/>
				<path id="&lt;Path&gt;" class="s1" d="m376.5 372.8v1.3q0 0.1 0.1 0.2 0 0 0.1 0.1v0.1h-0.8v-0.1q0.1-0.1 0.1-0.1 0.1-0.1 0.1-0.2v-2.8q0-0.2-0.1-0.2 0-0.1-0.1-0.1v-0.1h2.9q0.1 0 0.2 0 0-0.1 0-0.2h0.1v0.8h-0.1q0-0.2 0-0.2-0.1 0-0.2-0.1h-2.3v1.2h1.5q0.1 0 0.2 0 0 0 0.1-0.2v0.8q-0.1-0.1-0.1-0.2-0.1 0-0.2 0z"/>
				<path id="&lt;Path&gt;" class="s1" d="m379.9 374.1v-2.8q0-0.2 0-0.2-0.1-0.1-0.2-0.1v-0.1h0.9v0.1q-0.2 0-0.2 0.1 0 0 0 0.2v2.8q0 0.1 0 0.2 0 0 0.2 0.1v0.1h-0.9v-0.1q0.1-0.1 0.2-0.1 0-0.1 0-0.2z"/>
				<path id="&lt;Path&gt;" class="s1" d="m385.1 371.2l-0.4 0.7v-0.1q0-0.1 0-0.1 0-0.1-0.2-0.2-0.5-0.3-1.2-0.3-0.6 0-1.1 0.4-0.5 0.4-0.5 1.1 0 0.7 0.6 1.1 0.4 0.4 1 0.4 0.7 0 1.2-0.4 0.2-0.2 0.2-0.3 0 0 0-0.1l0.1-0.1 0.5 0.7h-0.1q-0.1-0.1-0.2-0.1 0 0 0 0.1-0.4 0.3-0.8 0.4-0.4 0.1-0.9 0.1-0.9 0-1.4-0.4-0.3-0.2-0.5-0.6-0.2-0.4-0.2-0.8 0-0.9 0.7-1.4 0.6-0.5 1.4-0.5 0.8 0 1.5 0.4 0.1 0 0.1 0 0.1 0 0.1-0.1z"/>
				<path id="&lt;Compound Path&gt;" fill-rule="evenodd" class="s1" d="m388.4 373.5h-1.8l-0.3 0.6q0 0.1 0 0.1 0 0.1 0.1 0.2v0.1h-0.9v-0.1q0.2 0 0.2-0.1 0.1-0.1 0.2-0.3l1.2-2.6q0.1-0.2 0.1-0.3 0-0.1-0.2-0.1v-0.1h1.1v0.1q-0.2 0-0.2 0.1 0 0.1 0.1 0.4l1.2 2.4q0.1 0.3 0.2 0.4 0 0.1 0.2 0.1v0.1h-1v-0.1q0.2-0.1 0.2-0.1 0-0.1-0.1-0.2zm-0.1-0.4l-0.8-1.7-0.8 1.7z"/>
				<path id="&lt;Path&gt;" class="s1" d="m393.3 371.1l-0.3 0.7-0.1-0.1q0-0.1 0-0.1 0-0.1-0.2-0.2-0.4-0.2-1.1-0.2-0.5 0-0.8 0.2-0.4 0.2-0.4 0.5 0 0.2 0.1 0.3 0.1 0.1 0.2 0.2 0.2 0 0.4 0 0.1 0 0.7 0.1 0.5 0 0.7 0 0.3 0.1 0.5 0.2 0.1 0.1 0.3 0.3 0.1 0.2 0.1 0.4 0 0.5-0.4 0.8-0.5 0.3-1.3 0.3-0.4 0-0.8-0.1-0.5-0.1-0.9-0.3 0 0 0 0-0.1 0-0.2 0.1v-0.1l0.4-0.7v0.1q0 0 0 0 0 0.1 0 0.1 0 0.1 0.3 0.3 0.6 0.3 1.2 0.3 0.5 0 0.8-0.2 0.2-0.1 0.3-0.3 0.1-0.1 0.1-0.3 0-0.1-0.1-0.2 0-0.2-0.2-0.2-0.1-0.1-0.3-0.1-0.1 0-0.6 0-0.5 0-0.7-0.1-0.3 0-0.4-0.1-0.3-0.1-0.5-0.3-0.1-0.2-0.1-0.5 0-0.5 0.4-0.8 0.5-0.3 1.2-0.3 0.7 0 1.4 0.3 0.1 0.1 0.1 0.1 0.1 0 0.1-0.2z"/>
				<path id="&lt;Compound Path&gt;" fill-rule="evenodd" class="s1" d="m238.1 361c0 0 0.5 0 2.1-0.8 1.7-0.9 1.5 2.5 1.5 2.5 1.8 0.8 4.8 0.5 5 0.4 0.2-0.2-1-0.9-1.3-1.6-0.4-0.6-0.3-2 0-2.3 1-1.1 3.7-0.3 3.7-0.3 0 0.2-0.1 1.8-0.1 1.8-0.2-0.1-2-0.2-2.2 0.2 0 0 0.9 0.3 1.3 1.1 0.5 1.2-0.4 2.9-0.4 2.9-3.5 2-7.2-0.1-7.3-0.3-0.2-0.1-0.5-1.1-0.5-1.1-4.2 1.8-8.6-0.2-8.6-0.2 0 0.9-0.4 1.4-0.4 1.4-4.5 2.1-7.4 0.2-7.4 0.2-1.7-2.7 0.7-4.2 0.7-4.2-0.4-0.2-2.2-0.1-2.2-0.1v-1.8c4-0.9 3.8 0.7 3.8 2.1 0.1 1.4-1.3 2.1-1.3 2.1 3.1 0.7 4.9-0.3 4.9-0.3 0 0 0-0.3 0.1-1.9 0-1.6 3.3 0.1 3.3 0.1 0.7-0.5 0.7-3.6 0.7-3.6-1.6-1.8 0.1-2.7 0.1-2.7 0.1-2.5-2.1-2.7-2.1-2.7 0.5 2.4-0.1 2.7-0.4 3.2-0.4 0.6-3.3 2-3.1 2.4 0.1 0.4 1.6-0.9 1.6-0.9 0.5 0.5 0.5 1.4 0.5 1.4-0.6 1.1-3.4 1.3-3.2-0.7 0.2-2.1 1.8-1.8 3.1-2.9 1.4-1.2-0.3-2.5-0.3-2.5-0.4 0.1-0.9 0.4-0.9 0.4 0 0.4 0.6 1.1 0.6 1.1-0.3 0.3-1.6 0.9-1.6 0.9-0.2-0.1-0.5-0.7-0.5-0.7l-0.4 0.4c0.9 3.1-2 3.1-2 3.1l0.1-0.7c-0.5 0.2-1.8 0.1-1.8 0.1-0.1-1.2 1.1-2.1 1.1-2.1-0.2-0.1-0.4-0.4-0.4-0.4 1.3-1.1 2.5-0.4 2.5-0.4l0.2-0.5c-0.7-1.4 0.5-0.7 0.5-0.7 0.1-1.2 0.9-1.5 0.9-1.5 0-0.2-0.5-0.4-0.5-0.4-1.9 1.6-3-0.9-3-0.9-0.4 0-1-0.3-1-0.3 0.1-0.3 0.6-0.7 0.6-0.7-0.2-0.1-0.5-1.1-0.5-1.1 0.2-0.1 1.2-0.2 1.2-0.2 0-0.2 0.4-0.7 0.4-0.7 0.2 0.2 0.9 1 0.9 1 0.2 0 0.7 0.2 0.7 0.2 0-0.2 0.2-0.6 0.2-0.6 0.1-0.1-0.6-0.5-0.6-0.5l0.2-0.2c0.1 0 0.9 0.3 0.9 0.3 2.1-1.4 2.9 0.1 2.9 0.1 0.3 1.9 0.8 1.4 0.8 1.4 0.1-0.2-0.1-1.1-0.1-1.1h0.6c0.1 0.5 1 1.6 1 1.6 0-2 1.2-2.6 1.2-2.6-0.1-3.1-2.7-4.1-2.7-4.1-0.2 0.7-0.4 2.4-0.2 2.5 0.2 0 0.9-1 0.9-1 0.8 0.5 0.9 1.5 0.9 1.5-2.7 1.7-3.5-0.9-3.5-0.9-0.2 0-1.8 0.3-1.8 0.3-0.2-0.3 0.3-1.8 0.3-1.8-1 0-1.5 0.9-1.5 0.9 0.4 2.2-2.7 2.7-2.7 2.7 0.1-0.2-0.4-0.6-0.4-0.6-0.3 0.1-1.8 0.2-1.8 0.2-0.1-1 0.9-1.8 0.9-1.8-0.1-0.1-0.4-0.9-0.4-0.9 2.2-1.1 3.6-0.3 3.6-0.3 1.3-1.3 3.9-1.7 3.9-1.7 0-0.3 0.2-0.6 0.2-0.6 0.1-0.6-2.2-0.6-2.2-0.6 0.1-0.2-0.3-1.1-0.3-1.1-0.1 0-0.5 0.2-0.5 0.2-0.8 1.2-0.9 0.2-0.9 0.2-0.2-0.1-0.8 0.4-0.8 0.4-0.5 1.1-2.5 1.1-2.5 1.1 0.2-0.2 0-0.6 0-0.6-0.5 0-1.6-0.9-1.6-0.9 0.3-0.3 1.5-0.9 1.5-0.9-0.3-0.2-0.2-1.5-0.2-1.5 0.2 0.2 1.4 0.5 1.4 0.5 1.2 0 1.5 1.3 1.5 1.3 0.4 0 1.8-0.7 1.8-0.7-0.3-1.3-1.7-1.5-1.7-1.5-2.9 1.3-3.3-1.2-3.3-1.2-0.2-0.1-0.9-0.4-0.9-0.4 0.2-0.3 0.9-0.6 0.9-0.6-0.2-0.2-0.2-1.2-0.2-1.2 0.2 0 1.4 0.1 1.4 0.1-0.1-0.2 0.3-0.8 0.3-0.8l0.5 1.2c0 0 1.8-0.5 1.5 1.9 0 0 0.3 0.3 0.8 0.5 0 0 0.2-0.9 0-1.3-0.2-0.4-0.7-1.3-0.8-1.3 0 0 0.8 0.2 0.9 0.3 0 0 0.5-0.5 0.5-0.7 0 0 1.2 1.3 1.1 2-0.1 0.7-1 1.3-1.2 1.3l0.3 0.3c0 0 3-1.3 4.2 1.2 0 0 0.2-1.1 0.1-1.3 0 0-1.6-0.2-0.7-2.2 0.4-0.9-0.1-1.3-0.1-1.3 0 0 1.3 0.2 1.6 1.2 0 0 0.7-0.6 0.5-1.2 0 0 1.3 0.5 0.9 2.4-0.2 1.1-1.1 1.3-1.1 1.3 0 0-0.7 2.1 0.4 3.8 0 0 1.1-0.9 1.2-1.3 0 0-0.8-1.2-0.2-2.1 0.6-0.9 1.2-0.7 1.4-0.9 0 0 0.8-0.9 0.8-1.2 0 0 0.3 0.8 0.2 1 0 0 1.1-0.2 1.3-0.2 0 0-0.1 1-0.2 1.1 0 0 0.6 0.6 1 0.4 0 0-0.6 0.7-0.9 0.8 0 0-0.5 2.3-2.9 1.8 0 0-0.9 0.9-1 1.2 0 0 1 1.3 1 1.7 0 0 1.3-0.4 1.6-0.2 0 0 2.2-0.9 2.3-4.8l0.6-0.1c0 0-0.3-1.2 0-1.9 0 0-2.2-2.4-0.8-3.2 0 0 0.4 0.7 0.9 0.9 0 0 0.7-0.2 0.9-0.7 0 0 0.9 1.3 0.6 2.4 0 0-1 1.4-0.8 2.1 0 0 0.9-1.1 2.7-0.8 0 0-0.2-1.5 0.6-2.6 0 0 0.2 0.8 0.6 1.1 0.5 0.4 0.4 1 0.3 1.2l0.5-0.2c0 0-0.7-2 1-2.5 0 0 0.3-1 0.6-1.3l0.6 0.7c0 0 0.7-0.6 1-0.6 0 0 0.4 1 0.3 1.2 0 0 0.8 0.1 1 0 0 0-0.8 1.3-1 1.4 0 0 0.5 2.3-2.8 1.7l-1 0.9c0 0 0.3 0.5 0.3 0.7 0 0 1.9-0.7 2.2-1 0 0 0 1.1-0.1 1.5 0 0 1.1 0.3 1.5 0.2 0 0-0.4 1.3-1.5 1.5 0 0 0.4 0.6-0.5 0.5 0 0-0.7 0.2-0.9 0.5 0 0-0.5-0.7-0.7-0.8 0 0-1.2 0.4-1.6 0.2 0 0 0.2-0.6 0.1-0.8l-0.2-0.2 0.2 0.2c0 0-1.6 0.1-1.5 0.7 0 0 0.2 1.2 0.2 1.4 0 0 1.2 0.2 1.4 0.4v1.6l-1.3-0.5c0 0-0.4 2.2-1.8 2-1.4-0.3-1.7-1-0.5-2.9 0 0-2.4 0.2-2.4 3.5 0 0 0.2 0.3 0.6 0.1 0 0 0 0.8-0.2 1.1 0 0 1.3-0.8 2.3-0.5 0 0 0.7-1 2-0.5 0 0 0.7 0 0.5-1.7h0.7v0.9c0 0 1.1-0.5 1.2-0.7 0 0-0.6-1.5 0.9-2.1 0 0 0.5-0.8 0.8-0.9 0 0 0.3 1.2 0.3 1.4 0 0 1.2-0.2 1.5-0.1 0 0-0.2 1-0.4 1.2 0 0 0.7 0.3 0.9 0.6 0 0-2.3 1.3-3.4 0.8 0 0-1.4 0.4-1.6 0.8 0 0 0.6 0.3 1.6-0.3v0.6h0.5c0 0 2.4-1.6 3.3 0.5 0 0 0.6 0.3 1 0.1 0 0-0.1 0.8-0.5 0.9 0 0 0.5 0.8 0.5 1.2 0 0-0.7 0.2-1.1 0 0 0 0 0.9-0.1 1.1 0 0-0.8-0.6-0.9-0.9 0 0-2.3 0.3-2.4-1.9l-0.5-0.2c0 0-0.7 0.5-1 0.6 0 0 0.8 0.4 0.9 0.6 0 0-0.3 1-0.6 1 0 0-2.6-1.3-3.3-0.4 0 0 1.3 0.8 1.6 1.1 0 0 2.7-0.6 2.2 1.6l0.1 0.3c0 0 1.4 0.1 1.8 2.5 0 0-1.6 0.4-2-1.9 0 0-0.2 0.1-0.3 0.2 0 0 0.2 0.4 0.1 0.6 0 0 1.9 1.8-0.6 3.8 0 0-1-1.1-1-1.5 0 0-1.1-0.4-1.6 0.2 0 0-0.1-2 2.4-2.3v-0.4c0 0-0.8 0.5-1.2 0.6 0 0-0.8 0-1.5-1 0 0 2.5-0.8 2.2-1.1-0.3-0.3-2.9 1.4-4.9 0.4 0 0-0.2 0.4-0.5 0.4 0 0-0.9 1.6-0.3 3.1 0 0 1.9 1.4 0.5 2.8 0 0 0.2 2 0.6 2.1zm2.2 1.8c0 0-0.1 1 0.5 1.6 2.2 1.2 4.8 1.3 6.7 0.2 0.1-0.4 0.3-1 0.4-1.4-2.1 1-5.7 0.3-7.6-0.4zm-17 0.4c0 0.5 0.2 1.1 0.6 1.5 2 0.9 4.5 0.6 6.4-0.2 0.7-0.3 0.5-0.7 0.5-1.8-2.2 1-5.2 1.3-7.5 0.5zm17.2-0.9c0 0.1 0.4 0.2 0.7 0.3 0.2-0.1 0-1.1 0.1-1.3-0.1 0-0.8 0.2-0.8 1zm-10.6-1.1c0 0 0 1.4 0 1.4 0.3-0.1 0.8-0.2 0.8-0.4 0.1-0.2-0.5-0.8-0.8-1zm-5.3-0.4c-0.5 0.5-1.2 0.9-1.3 1.8 0 0.3 0.9 0.3 0.9 0.3 0.5-0.5 1-0.6 1.2-1.6 0-0.3-0.6-0.5-0.8-0.5zm5.5-0.2c0 0.3 0.6 0.7 0.9 1.2 0.3 0.5 0.3 1 0.3 1 2.3 1.1 6.2 1.4 8.6 0.2 0-1 0.3-1.7 1.1-2.1 0.1-0.1-0.1-0.4-0.3-0.4-1.6 0.7-3.2 1.5-5.1 1.5-2.2 0.2-3.7-1.3-5.5-1.4zm16.1-1.4c-0.8 0.1-0.7 1.3-0.6 1.7 0.9-0.5 2.1-0.8 3-0.6 0.1 0 0.1-0.7 0.1-1.1 0 0-1.4-0.4-2.5 0zm-23.8-0.1c0 0.4-0.1 0.9 0 1.2 1-0.2 2.5 0 3.1 0.5l-0.1-1.2c-0.6-1-2-0.6-3-0.5zm10.9-3.4v0.5c0.5 1.4 2.2 1 3.4 1.4 0.3 0.1 0.6 0.5 0.9 0.7 0-2.8-3-1.5-4.3-2.6zm0.4-0.6l-0.2 0.2 0.2 0.1zm-3.2-3.3c-0.2 0.3 0.2 0.7 0.4 1.1 0.5 2-2.2 2.3-3.2 3.3-0.4 0.4-0.6 0.9-0.5 1.5 0.1 0.4 0.6 0.8 1 0.8 0.5-0.1 1.1-0.2 1.5-0.7 0.1-0.2 0-0.6-0.2-0.6-0.5 0.3-0.9 0.7-1.6 0.6-0.1 0-0.4-0.1-0.3-0.4 0.6-1.2 2.2-1.4 3.2-2.5 0.4-0.6 0.6-1.3 0.5-2-0.2-0.4-0.2-1.1-0.8-1.1zm-2.5-0.4c-0.4 0.4-0.6 1-0.4 1.7 0.1 0.2 0.2 0.6 0.5 0.7 1.3-0.3 0-1.3 0.2-2.1 0-0.3 0.3-0.6 0.6-0.6-0.4 0-0.7 0.1-0.9 0.3zm14.6-0.5c-1.6 0.4-3.2 1.3-4.8 0.7-0.2 0.3 0 0.6 0.2 0.7 1.7 0.8 3.4-0.2 5.1-0.6 0.2 0.1 0.3 0.3 0.3 0.4-0.5 0.8-1.4 1-2.2 1.3 0 0.2 0.1 0.2 0.2 0.3 0.6 0.5 1.2-0.3 1.8-0.6 0.5-0.4 1-1 0.8-1.6-0.2-0.6-0.9-0.5-1.4-0.6zm-5-0.1c-0.1 0.3 0.3 0.3 0.5 0.4 0.8 0.2 1.9 0.2 2.6-0.3-0.9-0.6-2.2-0.6-3.1-0.1zm-9.6-2.5c-0.1 0.2-0.1 0.5 0 0.6-0.3 0.7 0.3 1.3 0.7 1.6 0.7 0.2 1.4 0.2 2-0.3-0.2-0.3-0.3-0.6-0.6-0.8-0.7 0.8-1.4-0.2-1.9-0.5 0.1 0 0.1-0.2 0.2-0.1 0.2-0.1 0.6-0.2 0.6-0.5q-0.5-0.5-1 0zm5.4 0c-0.1 0.4 0 0.9 0.1 1.3 0.7 1.6 2.4 1.9 3.7 2.5 0.1 0 0.1-0.1 0.2-0.3-0.5-1.9-2.9-2.3-4-3.5zm8.2-0.1c-0.2 0.1-0.5 0-0.5 0.3 0.7 0.3 1.4 0.4 2.1 0.7 0.3 0.2 0.8 0.4 0.8-0.2-0.7-0.5-1.5-0.7-2.4-0.8zm-12.6 0.8c0.2 0.2 0.3 0.4 0.5 0.3 0.1-0.1 0.3-0.2 0.2-0.3-0.1-0.4-0.6-0.3-0.7 0zm8.9-1c-0.2 0.2-0.7 0.3-0.5 0.7 0.4-0.1 0.9-0.3 1.2-0.7-0.2-0.1-0.5 0-0.7 0zm0.7-0.5c0.8 0.1 1.3 0.8 1.5 1.6 0.2-0.1 0.4-0.1 0.6-0.3 0.1-0.5-0.1-0.8-0.4-1.2-0.4-0.3-1.3-0.5-1.7-0.1zm-4.8-0.4q-0.3 0.2-0.2 0.6c0.1 0.1 0.2 0.5 0.4 0.4 0-0.4 0-0.7-0.2-1zm9.8 0c-1.2 0.6-2.1-0.8-3.1-0.2 0.9 0.4 1.8 1.3 3 0.9 0.3-0.2 0.7-0.4 0.7-0.8h-0.2zm-14.8-0.5c-0.5 0.3-1.4 0.6-1.4 1.2 0.3 0.5 0.7 0 0.9-0.2 0.7-0.6 1.4-0.1 2 0.1 0.1-0.3-0.1-0.6-0.3-0.8-0.3-0.3-0.8-0.3-1.2-0.3zm12.4-10c-4.1 1.8 0.4 5.5-1.3 8.6 0.4 0 0.9-0.2 1.1-0.5 0.8-1.9 0.1-4.1-0.4-5.9-0.1-0.6-0.1-1 0.4-1.5 0.5-0.5 1.2-0.1 1.4 0.2 0.2 0 0.6-0.4 0.6-0.6-0.5-0.3-1.2-0.4-1.8-0.3zm0.7 5.8l-0.1 0.4c0 0.8 0.7 0.6 1 0.8v-0.8c-0.2-0.4-0.6-0.3-0.9-0.4zm-2.5-1.9l-0.1-0.5-0.1 0.5zm3.4-1.7l-0.2 0.4c0.1 0 0.2 0 0.3 0zm1-1.2c-0.3 0.3-0.7 0.7-0.7 0.9 0 0.3 0.3 1.3 0.1 1.9 0.3 0.1 0.6-0.1 0.9-0.1 0.3-0.9 0.4-2.1-0.3-2.7zm-16.5-0.8c0.4 1.2 1.6 0 2.1 0.4 2.3 2-0.7 4.3 0.1 6.7 0.2 0.5 0.6 1 1.1 1.2 0.5 0.2 1.3 0 1.7-0.3 0.1-0.3-0.2-0.5-0.4-0.8-0.2 0.2-0.4 0.4-0.5 0.6-0.2 0.4-0.7 0.3-0.8-0.1-0.3-2.4 1.7-5.5-0.5-7.6-0.8-0.6-2-0.6-2.8-0.1zm13.8 0.8c-0.3 0.3-0.3 0.9-0.1 1.3 0.4-0.3 1-0.9 1.2-1.2-0.2-0.3-0.8-0.6-1.1-0.1zm-2.1 6.8c0.1 0.1 0.1 0.5 0.4 0.5 0.5-0.5 0.5-1.2 0.5-1.8-0.5 0.3-0.8 0.8-0.9 1.3zm-10.5-6.9c0.2 0.4 0.9 0.5 1.3 0.6l-0.1-0.3c-0.4-0.5-0.7-0.6-1.2-0.3zm18.8 25.3c0.1 0 0.5-0.2 0.5-0.2 0.3-0.7-1.4-1.7-1.4-1.7 0 0-0.4 0.2-0.5 0.3-0.5 0.1 1.3 1.6 1.4 1.6z"/>
				<path id="&lt;Path&gt;" class="s1" d="m294.5 360.8q-0.2 0-0.4-0.1-0.1 0-0.3 0-0.4 0-1.7 0.8-1.4 0.7-3.5 1.6-2.1 0.9-4.7 1.6-2.7 0.6-5.6 0.6-3.8 0-7.4-0.9-3.5-1-6.2-3-2.7-2.1-4.3-5.1-1.6-3-1.6-7.1 0-4 1.6-7.1 1.6-3 4.3-5.1 2.7-2.1 6.2-3.1 3.6-1 7.4-1 3.1 0 5.6 0.5 2.5 0.4 4.4 1 1.9 0.5 3 1 1.1 0.5 1.3 0.5 0.3 0 0.5-0.3 0.2-0.3 0.3-0.5l1 0.8-4.8 7.3-0.6-0.4q0-0.2 0-0.4 0-0.2-0.1-0.4-0.1-0.7-1.2-1.4-1.1-0.7-2.7-1.2-1.6-0.6-3.4-0.9-1.8-0.4-3.3-0.4-2.6 0-4.9 0.7-2.3 0.8-4.1 2.2-1.7 1.4-2.7 3.4-1.1 2-1.1 4.6 0 2.6 1.1 4.7 1 2 2.7 3.4 1.8 1.4 4.1 2.1 2.3 0.7 4.9 0.7 1.9 0 4-0.4 2.2-0.5 3.9-1.2 1.8-0.7 3-1.6 1.1-0.8 1.2-1.6 0-0.5-0.3-0.7l0.9-0.5 4 6.4z"/>
				<path id="&lt;Path&gt;" class="s1" d="m304.5 355.1l0.6 0.3q0 0.6 0.3 1 0.4 0.8 1.6 1.5 1.3 0.7 2.9 1.2 1.6 0.6 3.4 0.9 1.7 0.3 3.1 0.3 1 0 2.7-0.1 1.6-0.2 3.2-0.7 1.6-0.5 2.7-1.3 1.2-0.9 1.2-2.3 0-1.4-1.1-2-1-0.7-2.8-1-1.7-0.3-3.9-0.4-2.2-0.1-4.5-0.3-2.3-0.2-4.5-0.6-2.3-0.4-4-1.4-1.7-1-2.8-2.7-1-1.8-1-4.6 0-1.8 0.8-3.7 0.9-1.8 2.7-3.2 1.9-1.4 4.6-2.3 2.8-0.8 6.6-0.8 3.2 0 5.6 0.5 2.3 0.4 4.1 1 1.7 0.5 2.9 1 1.1 0.5 1.9 0.5 0.9 0 1.2-0.4l0.8 0.5-4.2 7.6-0.6-0.2q-0.1-0.9-0.5-1.4-0.5-0.7-1.6-1.4-1.1-0.7-2.6-1.3-1.6-0.5-3.3-0.9-1.8-0.3-3.5-0.3-1.4 0-2.8 0.2-1.4 0.2-2.6 0.7-1.1 0.4-1.9 1.1-0.7 0.7-0.7 1.7 0 1.5 1 2.2 1.1 0.7 2.8 1.1 1.7 0.3 4 0.5 2.2 0.1 4.5 0.3 2.3 0.2 4.5 0.6 2.2 0.5 3.9 1.5 1.8 1 2.8 2.7 1.1 1.7 1.1 4.4 0 3.1-1.7 5.1-1.6 2-4.1 3.2-2.5 1.1-5.4 1.5-2.9 0.4-5.4 0.4-3.4 0-5.8-0.4-2.3-0.4-3.8-0.9-1.6-0.6-2.5-1.1-0.9-0.4-1.6-0.4-0.4 0-0.8 0.5l-0.8-0.5z"/>
				<path id="&lt;Path&gt;" class="s1" d="m340.9 364.1q1.6 0 1.6-1.1v-27.6q0-1.1-1.6-1.1v-1.1h10.1v1.1q-1.6 0-1.6 1.1v27.6q0 1.1 1.6 1.1v1.1h-10.1z"/>
				<path id="&lt;Path&gt;" class="s1" d="m393.1 360.8q-0.1 0-0.3-0.1-0.1 0-0.3 0-0.4 0-1.8 0.8-1.3 0.7-3.4 1.6-2.1 0.9-4.8 1.6-2.6 0.6-5.5 0.6-3.9 0-7.4-0.9-3.5-1-6.2-3-2.7-2.1-4.3-5.1-1.6-3-1.6-7.1 0-4 1.6-7.1 1.6-3 4.3-5.1 2.7-2.1 6.2-3.1 3.5-1 7.4-1 3 0 5.6 0.5 2.5 0.4 4.4 1 1.8 0.5 2.9 1 1.1 0.5 1.4 0.5 0.3 0 0.5-0.3 0.2-0.3 0.3-0.5l0.9 0.8-4.7 7.3-0.6-0.4q0-0.2 0-0.4-0.1-0.2-0.1-0.4-0.2-0.7-1.2-1.4-1.1-0.7-2.7-1.2-1.7-0.6-3.4-0.9-1.8-0.4-3.3-0.4-2.6 0-4.9 0.7-2.4 0.8-4.1 2.2-1.7 1.4-2.8 3.4-1 2-1 4.6 0 2.6 1 4.7 1.1 2 2.8 3.4 1.7 1.4 4.1 2.1 2.3 0.7 4.9 0.7 1.9 0 4-0.4 2.1-0.5 3.9-1.2 1.8-0.7 2.9-1.6 1.2-0.8 1.2-1.6 0-0.5-0.2-0.7l0.8-0.5 4 6.4z"/>
			</g>
			<g id="Unizar">
				<filter id="f2">
					<feFlood flood-color="#ffffff" flood-opacity="1" />
					<feBlend mode="normal" in2="SourceGraphic"/>
					<feComposite in2="SourceAlpha" operator="in" />
				</filter>
				<g id="&lt;Group&gt;" filter="url(#f2)">
					<g id="&lt;Group&gt;">
						<path id="&lt;Compound Path&gt;" fill-rule="evenodd" class="s2" d="m566.6 347.6h-3.1l-0.1-1.6h-0.1c-0.6 1.2-2 1.8-3.4 1.8-2.6 0-4.7-2.2-4.7-5.6 0-3.7 2.3-5.9 4.9-5.9 1.4 0 2.4 0.5 2.9 1.2h0.1v-5.9h3.4v12.7c0 1.2 0 2.5 0.1 3.3zm-3.5-4.9v-1.5c0-0.2 0-0.4-0.1-0.6-0.2-0.9-0.9-1.7-2-1.7-1.5 0-2.3 1.4-2.3 3.2 0 1.8 0.9 3 2.3 3 1 0 1.8-0.7 2-1.7q0.1-0.3 0.1-0.7z"/>
						<path id="&lt;Compound Path&gt;" fill-rule="evenodd" class="s2" d="m553.9 347.6h-3l-0.2-1.1h-0.1c-0.7 0.8-1.9 1.3-3.2 1.3-2.2 0-3.5-1.6-3.5-3.4 0-2.8 2.6-4.2 6.4-4.2v-0.1c0-0.6-0.3-1.4-2-1.4-1.1 0-2.3 0.3-3 0.8l-0.6-2.2c0.7-0.4 2.3-1 4.3-1 3.6 0 4.8 2.2 4.8 4.8v3.8c0 1 0 2 0.1 2.7zm-3.4-4v-1.2c-1.8 0-3.2 0.4-3.2 1.7 0 0.9 0.5 1.3 1.3 1.3 0.8 0 1.6-0.6 1.8-1.3q0.1-0.2 0.1-0.5z"/>
						<path id="&lt;Compound Path&gt;" fill-rule="evenodd" class="s2" d="m542.6 347.6h-3l-0.2-1.6c-0.7 1.2-2.1 1.8-3.5 1.8-2.6 0-4.7-2.2-4.7-5.6 0-3.7 2.3-5.9 4.9-5.9 1.4 0 2.4 0.5 2.9 1.2h0.1v-5.9h3.4v12.7c0 1.2 0 2.5 0.1 3.3zm-3.5-4.9v-1.5c0-0.2 0-0.4-0.1-0.6-0.2-0.9-0.9-1.7-2-1.7-1.5 0-2.3 1.4-2.3 3.2 0 1.8 0.9 3 2.3 3 1 0 1.8-0.7 2-1.7q0.1-0.3 0.1-0.7z"/>
						<path id="&lt;Path&gt;" class="s2" d="m529.7 336.6v11h-3.4v-11z"/>
						<path id="&lt;Path&gt;" class="s2" d="m529.9 333.2c0 0.9-0.7 1.7-1.9 1.7-1.1 0-1.8-0.8-1.8-1.7 0-1 0.8-1.7 1.9-1.7 1.1 0 1.7 0.7 1.8 1.7z"/>
						<path id="&lt;Compound Path&gt;" fill-rule="evenodd" class="s2" d="m525.5 363.5h-1.4l-0.1-1c-0.5 0.6-1.4 1.2-2.6 1.2-1.8 0-2.6-1.2-2.6-2.4 0-2.1 1.8-3.2 5.1-3.2v-0.2c0-0.6-0.2-1.9-2-1.9-0.8 0-1.6 0.2-2.2 0.6l-0.4-1c0.8-0.5 1.8-0.8 2.9-0.8 2.6 0 3.2 1.8 3.2 3.5v3.2c0 0.7 0 1.5 0.1 2zm-1.6-2.8v-1.5c-1.7 0-3.6 0.3-3.6 1.9 0 1 0.7 1.5 1.4 1.5 1.2 0 1.9-0.7 2.1-1.4q0.1-0.3 0.1-0.5z"/>
						<path id="&lt;Path&gt;" class="s2" d="m524.4 337l-0.6 2.3c-0.5-0.3-1.4-0.6-2.4-0.6-0.8 0-1.3 0.3-1.3 0.9 0 0.5 0.5 0.8 1.8 1.2 2.1 0.8 2.9 1.8 3 3.4 0 2.1-1.6 3.6-4.8 3.6-1.4 0-2.7-0.3-3.5-0.8l0.6-2.4c0.6 0.4 1.9 0.8 2.9 0.8 1.1 0 1.5-0.3 1.5-0.9 0-0.6-0.3-0.9-1.6-1.3-2.3-0.7-3.2-2-3.1-3.3 0-2 1.7-3.6 4.4-3.6 1.3 0 2.4 0.3 3.1 0.7z"/>
						<path id="&lt;Path&gt;" class="s2" d="m517.3 362.3v1.2h-6.9v-0.9l3.9-5c0.4-0.4 0.2-0.9 0.6-1.3h-4.6v-1.3h6.5v1l-3.3 4.9c-0.4 0.5-0.8 1-1.1 1.4z"/>
						<path id="&lt;Path&gt;" class="s2" d="m516 336.4v3.2c-0.2-0.1-0.5-0.1-0.9-0.1-1.2 0-2.1 0.7-2.3 1.7q-0.1 0.4-0.1 0.8v5.6h-3.4v-7.4c0-1.6 0-2.7-0.1-3.6h2.9l0.2 2h0.1c0.5-1.6 1.8-2.3 2.9-2.3 0.3 0 0.5 0 0.7 0.1z"/>
						<path id="&lt;Compound Path&gt;" fill-rule="evenodd" class="s2" d="m505 354.8c2.4 0 4.1 1.8 4.1 4.4 0 3.2-2.2 4.5-4.3 4.5-2.3 0-4.1-1.7-4.1-4.4 0-2.8 1.9-4.5 4.3-4.5zm2.5 4.5c0-1.5-0.7-3.3-2.6-3.3-1.8 0-2.6 1.7-2.6 3.3 0 1.9 1.1 3.3 2.6 3.3 1.5 0 2.6-1.4 2.6-3.3z"/>
						<path id="&lt;Compound Path&gt;" fill-rule="evenodd" class="s2" d="m507.9 341.8c0 0.6-0.1 1.1-0.1 1.4h-7.1c0.1 1.4 1.5 2 3.1 2 1.2 0 2.1-0.1 3-0.4l0.5 2.3c-1.1 0.5-2.5 0.7-4 0.7-3.7 0-5.8-2.2-5.8-5.6 0-2.8 1.7-5.9 5.5-5.9 3.5 0 4.9 2.8 4.9 5.5zm-7.2-1h4c0-0.8-0.3-2.2-1.9-2.2-1.4 0-2 1.3-2.1 2.2z"/>
						<path id="&lt;Compound Path&gt;" fill-rule="evenodd" class="s2" d="m497 355h1.4c-0.1 0.6-0.1 1.3-0.1 2.3v5c0 2-0.4 3.1-1.2 3.9-0.9 0.8-2 1-3.1 1-1 0-2.2-0.2-2.9-0.7l0.4-1.2c0.6 0.4 1.5 0.7 2.5 0.7 1.6 0 2.8-0.8 2.8-3v-0.9h-0.1c-0.4 0.8-1.4 1.4-2.7 1.4-2.1 0-3.6-1.8-3.6-4.2 0-2.8 1.9-4.5 3.9-4.5 1.4 0 2.2 0.8 2.6 1.5h0.1zm-0.3 4.9v-1.5q0-0.4-0.1-0.7c-0.3-0.9-1-1.7-2.1-1.7-1.5 0-2.6 1.3-2.6 3.2 0 1.7 0.9 3.1 2.5 3.1 1 0 1.9-0.6 2.2-1.6 0.1-0.2 0.1-0.5 0.1-0.8z"/>
						<path id="&lt;Path&gt;" class="s2" d="m497.5 336.6l-4.1 11h-3.4l-4-11h3.7l1.5 5.1c0.2 0.9 0.4 1.8 0.6 2.6h0.1c0.1-0.9 0.3-1.7 0.6-2.6l1.4-5.1z"/>
						<path id="&lt;Compound Path&gt;" fill-rule="evenodd" class="s2" d="m488.1 363.5h-1.3l-0.2-1c-0.5 0.6-1.4 1.2-2.6 1.2-1.8 0-2.6-1.2-2.6-2.4 0-2.1 1.8-3.2 5.1-3.2v-0.2c0-0.6-0.2-1.9-1.9-1.9-0.9 0-1.7 0.2-2.3 0.6l-0.3-1c0.7-0.5 1.7-0.8 2.8-0.8 2.6 0 3.2 1.8 3.2 3.5v3.2c0 0.7 0.1 1.5 0.1 2zm-1.6-2.8v-1.5c-1.7 0-3.6 0.3-3.6 1.9 0 1 0.7 1.5 1.5 1.5 1.1 0 1.8-0.7 2.1-1.4q0-0.3 0-0.5z"/>
						<path id="&lt;Path&gt;" class="s2" d="m485 336.6v11h-3.4v-11z"/>
						<path id="&lt;Path&gt;" class="s2" d="m485.1 333.2c0 0.9-0.7 1.7-1.8 1.7-1.1 0-1.8-0.8-1.8-1.7 0-1 0.7-1.7 1.8-1.7 1.1 0 1.8 0.7 1.8 1.7z"/>
						<path id="&lt;Path&gt;" class="s2" d="m480.1 354.9v1.4c-0.2 0-0.3 0-0.5 0-1.1 0-1.9 0.8-2.1 2-0.1 0.2-0.1 0.5-0.1 0.7v4.5h-1.5v-5.8c0-1 0-1.9-0.1-2.7h1.4v1.7h0.1c0.4-1.1 1.3-1.9 2.4-1.9q0.2 0 0.4 0.1z"/>
						<path id="&lt;Path&gt;" class="s2" d="m479.5 341.1v6.5h-3.4v-6.1c0-1.4-0.5-2.4-1.7-2.4-1 0-1.5 0.6-1.8 1.3-0.1 0.2-0.1 0.5-0.1 0.8v6.4h-3.4v-7.5c0-1.4-0.1-2.5-0.1-3.5h3l0.1 1.5h0.1c0.4-0.7 1.5-1.8 3.4-1.8 2.2 0 3.9 1.5 3.9 4.8z"/>
						<path id="&lt;Compound Path&gt;" fill-rule="evenodd" class="s2" d="m473 363.5h-1.4l-0.1-1h-0.1c-0.4 0.6-1.4 1.2-2.6 1.2-1.7 0-2.6-1.2-2.6-2.4 0-2.1 1.9-3.2 5.1-3.2v-0.2c0-0.6-0.2-1.9-1.9-1.9-0.8 0-1.6 0.2-2.2 0.6l-0.4-1c0.7-0.5 1.8-0.8 2.8-0.8 2.6 0 3.3 1.8 3.3 3.5v3.2c0 0.7 0 1.5 0.1 2zm-1.6-2.8v-1.5c-1.7 0-3.6 0.3-3.6 1.9 0 1 0.6 1.5 1.4 1.5 1.1 0 1.9-0.7 2.1-1.4q0.1-0.3 0.1-0.5z"/>
						<path id="&lt;Path&gt;" class="s2" d="m466.9 331.5v9.4c0 4.7-2.4 6.9-6.3 6.9-3.9 0-6.1-2.1-6.1-6.9v-9.4h3.4v9.6c0 2.6 1 4 2.8 4 1.8 0 2.8-1.3 2.8-4v-9.6z"/>
						<path id="&lt;Path&gt;" class="s2" d="m464.7 362.3v1.2h-9.7v-0.9l7.6-9.6h-7.6v-1.3h9.6v0.9l-7.6 9.6v0.1z"/>
						<path id="&lt;Path&gt;" class="s2" d="m439.3 365.3v1.9h-30.2v-1.9z"/>
						<path id="&lt;Path&gt;" class="s2" d="m439 331.5l-1.6 1.6h-26.6l-1-1.6z"/>
						<path id="&lt;Path&gt;" class="s2" d="m437.3 363.2v1.5h-26.2v-1.5z"/>
						<path id="&lt;Path&gt;" class="s2" d="m436.4 330.3l-1.3 0.8h-22.3l-0.9-0.8z"/>
						<path id="&lt;Path&gt;" class="s2" d="m435.4 361.7v1h-22.4v-1z"/>
						<path id="&lt;Path&gt;" class="s2" d="m434.4 336v1.7c0 0.2-0.1 0.2-0.2 0.2h-1.6c-0.1 0-0.2 0-0.2-0.2v-1.7c0-0.6 0.4-1 1-1 0.5 0 1 0.4 1 1z"/>
						<path id="&lt;Path&gt;" class="s2" d="m433.4 342.8v3.5c0 0.3-0.2 0.4-0.4 0.4h-3.2c-0.2 0-0.4-0.1-0.4-0.4v-3.5c0-1.1 0.9-2 2-2 1.1 0 2 0.9 2 2z"/>
						<path id="&lt;Path&gt;" class="s2" d="m433.4 354.8v6.1c0 0.3-0.2 0.4-0.4 0.4h-3.2c-0.2 0-0.4-0.1-0.4-0.4v-6.1c0-1.1 0.9-2 2-2 1.1 0 2 0.9 2 2z"/>
						<path id="&lt;Path&gt;" class="s2" d="m432.8 351.3c0.3 0 0.5 0.2 0.5 0.5 0 0.3-0.2 0.5-0.5 0.5-0.3 0-0.6-0.2-0.6-0.5 0-0.3 0.3-0.5 0.6-0.5z"/>
						<path id="&lt;Path&gt;" class="s2" d="m431.7 373.9v0.7h-2.6v-0.5l0.5-0.5c0.8-0.7 1.2-1.1 1.2-1.5 0-0.3-0.2-0.6-0.6-0.6-0.4 0-0.6 0.2-0.8 0.3l-0.3-0.6c0.3-0.2 0.7-0.3 1.2-0.3 0.9 0 1.3 0.4 1.3 1.1 0 0.6-0.4 1.1-1 1.6l-0.3 0.3z"/>
						<path id="&lt;Path&gt;" class="s2" d="m431.2 336v1.7c0 0.2-0.1 0.2-0.1 0.2h-1.6c-0.1 0-0.2 0-0.2-0.2v-1.7c0-0.6 0.4-1 1-1 0.5 0 0.9 0.4 0.9 1z"/>
						<path id="&lt;Path&gt;" class="s2" d="m429.9 351.3c0.3 0 0.5 0.2 0.5 0.5 0 0.3-0.2 0.5-0.5 0.5-0.3 0-0.5-0.2-0.5-0.5 0-0.3 0.2-0.5 0.5-0.5z"/>
						<path id="&lt;Compound Path&gt;" fill-rule="evenodd" class="s2" d="m429.4 349.7h-10.5l5.3-2.7zm-4.5-1.1v-0.8q0-0.1-0.2-0.1h-1q-0.1 0-0.1 0.1v0.8c0 0.4 0.3 0.7 0.6 0.7 0.4 0 0.7-0.3 0.7-0.7z"/>
						<path id="&lt;Path&gt;" class="s2" d="m428.3 336v1.7c0 0.2-0.1 0.2-0.2 0.2h-1.6c-0.1 0-0.2 0-0.2-0.2v-1.7c0-0.6 0.5-1 1-1 0.5 0 1 0.4 1 1z"/>
						<path id="&lt;Compound Path&gt;" fill-rule="evenodd" class="s2" d="m427.4 373.1v0.6h-0.5v0.9h-0.8v-0.9h-1.6v-0.6l1.4-2.2h1v2.2zm-1.2-1.5q-0.2 0.3-0.3 0.7l-0.5 0.8h0.8v-0.8q0-0.4 0-0.7z"/>
						<path id="&lt;Path&gt;" class="s2" d="m427.1 347.3c0.1 0 0.2 0.1 0.2 0.2 0 0.1-0.1 0.2-0.2 0.2-0.1 0-0.2-0.1-0.2-0.2 0-0.1 0.1-0.2 0.2-0.2z"/>
						<path id="&lt;Path&gt;" class="s2" d="m426.9 354.5v6.3c0 0.4-0.3 0.5-0.5 0.5h-4.6c-0.2 0-0.5-0.1-0.5-0.5v-6.3c0-1.6 1.3-2.8 2.8-2.8 1.6 0 2.8 1.2 2.8 2.8z"/>
						<path id="&lt;Path&gt;" class="s2" d="m426.4 346.9c0.2 0 0.4 0.1 0.4 0.3 0 0.2-0.2 0.4-0.4 0.4-0.1 0-0.3-0.2-0.3-0.4 0-0.2 0.2-0.3 0.3-0.3z"/>
						<path id="&lt;Path&gt;" class="s2" d="m426.3 350.4c0.3 0 0.5 0.2 0.5 0.5 0 0.3-0.2 0.5-0.5 0.5-0.3 0-0.5-0.2-0.5-0.5 0-0.3 0.2-0.5 0.5-0.5z"/>
						<path id="&lt;Path&gt;" class="s2" d="m426.2 342.8v3.5l-2-1-1.9 0.9v-3.4c0-1.1 0.9-2 1.9-2 1.1 0 2 0.9 2 2z"/>
						<path id="&lt;Path&gt;" class="s2" d="m425.7 346.5c0.2 0 0.4 0.2 0.4 0.4 0 0.2-0.2 0.3-0.4 0.3-0.2 0-0.3-0.1-0.3-0.3 0-0.2 0.1-0.4 0.3-0.4z"/>
						<path id="&lt;Path&gt;" class="s2" d="m425.2 336v1.7c0 0.2-0.1 0.2-0.2 0.2h-1.6c-0.1 0-0.1 0-0.1-0.2v-1.7c0-0.6 0.4-1 0.9-1 0.6 0 1 0.4 1 1z"/>
						<path id="&lt;Path&gt;" class="s2" d="m425 346.1c0.2 0 0.4 0.2 0.4 0.4 0 0.2-0.2 0.3-0.4 0.3-0.1 0-0.3-0.1-0.3-0.3 0-0.2 0.2-0.4 0.3-0.4z"/>
						<path id="&lt;Path&gt;" class="s2" d="m424.2 345.7c0.3 0 0.5 0.2 0.5 0.5 0 0.3-0.2 0.5-0.5 0.5-0.3 0-0.5-0.2-0.5-0.5 0-0.3 0.2-0.5 0.5-0.5z"/>
						<path id="&lt;Path&gt;" class="s2" d="m423.3 346.1c0.2 0 0.4 0.2 0.4 0.4 0 0.2-0.2 0.3-0.4 0.3-0.2 0-0.3-0.1-0.3-0.3 0-0.2 0.1-0.4 0.3-0.4z"/>
						<path id="&lt;Path&gt;" class="s2" d="m422.6 346.5c0.2 0 0.4 0.2 0.4 0.4 0 0.2-0.2 0.3-0.4 0.3-0.2 0-0.3-0.1-0.3-0.3 0-0.2 0.1-0.4 0.3-0.4z"/>
						<path id="&lt;Path&gt;" class="s2" d="m422.6 370.9v0.7h-1.4l-0.1 0.6q0.1 0 0.2 0c0.4 0 0.7 0 1 0.2q0.4 0.3 0.4 1c0 0.6-0.5 1.2-1.5 1.2-0.5 0-0.8-0.1-1-0.2l0.1-0.6c0.2 0.1 0.5 0.2 0.8 0.2 0.4 0 0.8-0.2 0.8-0.6 0-0.4-0.3-0.6-1.1-0.6-0.2 0-0.3 0-0.5 0l0.3-1.9z"/>
						<path id="&lt;Path&gt;" class="s2" d="m422.3 336v1.7c0 0.2-0.1 0.2-0.2 0.2h-1.6c-0.1 0-0.2 0-0.2-0.2v-1.7c0-0.6 0.4-1 1-1 0.5 0 1 0.4 1 1z"/>
						<path id="&lt;Path&gt;" class="s2" d="m421.9 346.9c0.2 0 0.4 0.1 0.4 0.3 0 0.2-0.2 0.4-0.4 0.4-0.2 0-0.3-0.2-0.3-0.4 0-0.2 0.1-0.3 0.3-0.3z"/>
						<path id="&lt;Path&gt;" class="s2" d="m421.8 350.4c0.3 0 0.5 0.2 0.5 0.5 0 0.3-0.2 0.5-0.5 0.5-0.3 0-0.5-0.2-0.5-0.5 0-0.3 0.2-0.5 0.5-0.5z"/>
						<path id="&lt;Path&gt;" class="s2" d="m421.3 347.3c0.1 0 0.2 0.1 0.2 0.2 0 0.1-0.1 0.2-0.2 0.2-0.1 0-0.2-0.1-0.2-0.2 0-0.1 0.1-0.2 0.2-0.2z"/>
						<path id="&lt;Path&gt;" class="s2" d="m419.3 336v1.7c0 0.2-0.1 0.2-0.2 0.2h-1.6c-0.1 0-0.2 0-0.2-0.2v-1.7c0-0.6 0.4-1 1-1 0.5 0 1 0.4 1 1z"/>
						<path id="&lt;Path&gt;" class="s2" d="m419 355v6c0 0.2-0.2 0.3-0.4 0.3h-3.3c-0.1 0-0.3-0.1-0.3-0.3v-6c0-1.1 0.9-2 2-2 1.1 0 2 0.9 2 2z"/>
						<path id="&lt;Path&gt;" class="s2" d="m419 342.8v3.5c0 0.3-0.2 0.4-0.4 0.4h-3.3c-0.1 0-0.3-0.1-0.3-0.4v-3.5c0-1.1 0.9-2 2-2 1.1 0 2 0.9 2 2z"/>
						<path id="&lt;Path&gt;" class="s2" d="m418.4 351.3c0.3 0 0.5 0.2 0.5 0.5 0 0.3-0.2 0.5-0.5 0.5-0.3 0-0.5-0.2-0.5-0.5 0-0.3 0.2-0.5 0.5-0.5z"/>
						<path id="&lt;Path&gt;" class="s2" d="m417.6 370.9v3.7h-0.8v-2.9l-0.7 0.3-0.2-0.6 1-0.5z"/>
						<path id="&lt;Path&gt;" class="s2" d="m416.3 336v1.7c0 0.2-0.1 0.2-0.2 0.2h-1.6c-0.1 0-0.2 0-0.2-0.2v-1.7c0-0.6 0.5-1 1-1 0.6 0 1 0.4 1 1z"/>
						<path id="&lt;Path&gt;" class="s2" d="m415.5 351.3c0.3 0 0.5 0.2 0.5 0.5 0 0.3-0.2 0.5-0.5 0.5-0.3 0-0.5-0.2-0.5-0.5 0-0.3 0.2-0.5 0.5-0.5z"/>
					</g>
					<g id="&lt;Group&gt;">
					</g>
				</g>
			</g>
			<filter id="f3">
				<feFlood flood-color="#ffffff" flood-opacity="1" />
				<feBlend mode="normal" in2="SourceGraphic"/>
				<feComposite in2="SourceAlpha" operator="in" />
			</filter>
			<g id="Severo Ochoa" clip-path="url(#cp2)" filter="url(#f3)">
				<path id="&lt;Path&gt;" class="s3" d="m26.9 350q-0.1 0-0.1 0c-9.1 0-16.5 7.3-16.5 16.4 0 9.1 7.4 16.5 16.5 16.5q0 0 0.1 0z"/>
				<path id="&lt;Path&gt;" class="s3" d="m37.1 393.2c0-5.7-4.6-10.2-10.2-10.3v20.6c5.6-0.1 10.2-4.7 10.2-10.3z"/>
				<path id="&lt;Compound Path&gt;" fill-rule="evenodd" class="s3" d="m26.9 349.9c-14.8 0-26.8-11.9-26.8-26.7 0-14.8 12-26.8 26.8-26.8 14.8 0 26.7 12 26.7 26.8 0 14.8-11.9 26.7-26.7 26.7zm0-32.9c-3.4 0-6.2 2.8-6.2 6.2 0 3.4 2.8 6.2 6.2 6.2 3.4 0 6.2-2.8 6.2-6.2 0-3.4-2.8-6.2-6.2-6.2z"/>
				<path id="&lt;Compound Path&gt;" fill-rule="evenodd" class="s4" d="m136.2 381.6l2.4 0.1q0 0.3 0 0.6 0 0.4 0 0.7h-1.2q-0.5 0-1 0-0.6 0-0.9 0h-0.6q-0.4 0-0.7 0-0.3 0-0.7 0h-0.4q-0.1-0.3-0.1-0.7 0-0.3 0.1-0.6l1.3-0.1 5.4-13.9h1.9l4.8 13.9 1.6 0.1q0 0.3 0 0.6 0 0.4 0 0.7h-1q-0.4 0-0.8 0-0.5 0-0.8 0h-0.8q-0.5 0-1 0-0.5 0-1 0h-0.6q0-0.3 0-0.7 0-0.3 0-0.6l2.1-0.1-1.3-3.8h-4q-0.6 0-1.3 0.1zm1.8-5q0.7 0.1 1.3 0.1 0.6 0 1.2 0 0.5 0 1 0 0.5 0 1.1 0l-2.2-6.6zm-13.6-9.2q1.4 0 2.8 0.5 1.4 0.5 2.5 1.5 1 1 1.6 2.4 0.7 1.4 0.7 3.2 0 1.9-0.6 3.5-0.6 1.5-1.6 2.6-1.1 1-2.5 1.6-1.4 0.6-3.1 0.6-1.5 0-2.8-0.6-1.4-0.5-2.5-1.4-1-1-1.7-2.5-0.7-1.5-0.7-3.4 0-1.7 0.6-3.2 0.6-1.4 1.7-2.5 1-1.1 2.5-1.7 1.4-0.6 3.1-0.6zm0.1 14.3q1.1 0 2-0.4 0.9-0.3 1.6-1.1 0.7-0.8 1.1-2 0.4-1.2 0.4-2.8 0-1.6-0.5-2.8-0.4-1.2-1.1-2-0.8-0.8-1.8-1.2-1-0.4-2.1-0.4-0.9 0-1.9 0.3-0.9 0.4-1.6 1.1-0.8 0.7-1.2 1.9-0.5 1.2-0.5 2.8 0 1.6 0.5 2.9 0.4 1.2 1.2 2 0.7 0.9 1.7 1.3 1 0.4 2.2 0.4zm-11.8-12.6q0 0.7 0 1.5 0 0.9-0.1 1.7 0 0.9 0 1.6v4.3q0 1 0 1.9 0.1 0.9 0.1 1.5h2q0.1 0.3 0.1 0.7 0 0.4-0.1 0.7h-1.3q-0.5 0-1.1 0-0.5 0-0.9 0h-0.7q-0.5 0-0.9 0-0.5 0-0.9 0h-0.6q-0.1-0.3-0.1-0.7 0-0.4 0.1-0.7h2q0-0.6 0.1-1.3 0-0.8 0-1.6 0-0.8 0-1.6v-1.3q-1 0-1.9 0-0.9 0-1.8 0-0.8 0-1.7 0-0.9 0-1.9 0v2.9q0 0.8 0 1.6 0.1 0.7 0.1 1.3h2q0 0.3 0 0.7 0 0.4 0 0.7h-1.3q-0.5 0-1.1 0-0.5 0-0.9 0h-0.7q-0.5 0-0.9 0-0.5 0-0.9 0h-0.6q-0.1-0.3-0.1-0.7 0-0.4 0.1-0.7h2q0-0.6 0.1-1.5 0-1 0-1.9 0-1 0-1.8v-4.3q0-0.9 0-1.7 0-0.8 0-1.3l-2.1-0.1q0-0.2 0-0.6 0-0.4 0-0.7h0.6q0.4 0 0.9 0 0.5 0 1 0h2.7q0.6 0 1.3 0 0 0.3 0 0.7 0 0.4 0 0.6l-2.1 0.1q0 0.6 0 1.3 0 0.6-0.1 1.3 0 0.7 0 1.4v1.2q0.9 0 1.9 0h3.6q0.9 0 1.8 0v-1.3q0-0.7 0-1.5 0-0.7 0-1.3 0-0.7 0-1.1l-2.1-0.1q0-0.2 0-0.6 0-0.4 0-0.7h0.6q0.4 0 0.9 0 0.5 0 1 0h2.7q0.6 0 1.3 0 0 0.3 0 0.7 0 0.4 0 0.6zm-18 0.9q0-0.4-0.3-0.6-0.2-0.1-0.5-0.2-0.5-0.1-1-0.1-0.5-0.1-1.2-0.1-1.2 0-2.2 0.3-1.1 0.3-1.9 1-0.8 0.7-1.3 1.9-0.5 1.2-0.5 3 0 1.9 0.5 3.1 0.6 1.3 1.4 2 0.8 0.8 1.8 1.1 1 0.3 2 0.3 0.6 0 1.1 0 0.6-0.1 1.1-0.2 0.6-0.1 0.8-0.3 0.2-0.1 0.3-0.6l0.3-2.3q0.2 0 0.4 0h0.8q0.2 0 0.4 0 0 0.2 0 0.8 0 0.6-0.1 1.3-0.1 0.7-0.1 1.4 0 0.6 0 0.9h-0.5q-0.4 0-0.9 0.1-0.6 0.1-1.2 0.2-0.6 0.1-1.2 0.2-0.7 0.1-1.2 0.1-1.9 0-3.3-0.5-1.5-0.6-2.6-1.6-1-1-1.6-2.4-0.6-1.4-0.6-3.2 0-1.8 0.6-3.3 0.6-1.6 1.7-2.6 1.1-1.1 2.6-1.7 1.5-0.6 3.4-0.6 0.6 0 1.1 0.1 0.6 0.1 1.2 0.2 0.6 0 1.1 0.1 0.5 0.1 0.9 0.2l0.5-0.1v0.9q0 0.6 0 1.2 0 0.6 0 1.2v0.7q-0.2 0-0.4 0h-0.8q-0.2 0-0.4 0zm-21-2.6q1.5 0 2.9 0.5 1.4 0.5 2.4 1.5 1.1 1 1.7 2.4 0.7 1.4 0.7 3.2 0 1.9-0.6 3.5-0.6 1.5-1.7 2.6-1 1-2.4 1.6-1.4 0.6-3.1 0.5-1.5 0-2.8-0.5-1.4-0.5-2.5-1.5-1.1-0.9-1.7-2.4-0.7-1.5-0.7-3.4 0-1.7 0.6-3.2 0.6-1.4 1.7-2.5 1-1.1 2.5-1.7 1.4-0.6 3-0.6zm0.2 14.3q1.1 0 2-0.4 0.9-0.4 1.6-1.1 0.7-0.8 1.1-2 0.4-1.2 0.4-2.8 0-1.6-0.5-2.8-0.4-1.2-1.2-2-0.7-0.8-1.7-1.2-1-0.4-2.1-0.4-0.9 0-1.9 0.3-0.9 0.3-1.6 1.1-0.8 0.7-1.2 1.9-0.5 1.2-0.5 2.8 0 1.6 0.5 2.8 0.4 1.3 1.2 2.1 0.7 0.9 1.7 1.3 1 0.4 2.2 0.4z"/>
				<path id="&lt;Compound Path&gt;" fill-rule="evenodd" class="s4" d="m143.8 345.3q1.5 0 2.8 0.5 1.4 0.5 2.5 1.5 1 1 1.6 2.4 0.7 1.4 0.7 3.2 0 2-0.6 3.5-0.6 1.5-1.6 2.6-1.1 1-2.5 1.6-1.4 0.6-3.1 0.6-1.5 0-2.8-0.5-1.4-0.6-2.5-1.5-1-1-1.7-2.5-0.6-1.5-0.6-3.4 0-1.7 0.6-3.2 0.5-1.4 1.6-2.5 1-1.1 2.5-1.7 1.4-0.6 3.1-0.6zm0.1 14.3q1.1 0 2-0.3 0.9-0.4 1.6-1.2 0.7-0.8 1.1-2 0.4-1.2 0.4-2.8 0-1.6-0.5-2.8-0.4-1.2-1.1-2-0.8-0.8-1.8-1.2-1-0.4-2.1-0.4-0.9 0-1.9 0.3-0.9 0.4-1.6 1.1-0.8 0.8-1.2 1.9-0.5 1.2-0.5 2.8 0 1.6 0.5 2.9 0.4 1.2 1.2 2 0.7 0.9 1.7 1.3 1 0.4 2.2 0.4zm-16.9 0q0 0.2 0 0.6 0 0.4 0 0.7h-1.4q-0.6 0-1.2 0-0.6 0-0.9 0h-0.8q-0.4 0-0.9 0-0.5 0-0.9 0h-0.6q0-0.3 0-0.7 0-0.4 0-0.6l2-0.1q0.1-0.6 0.1-1.5 0-1 0-1.9 0-0.9 0-1.8v-4.3q0-0.9 0-1.7 0-0.8 0-1.3l-2.1-0.1q0-0.2 0-0.6 0-0.4 0-0.7h0.7q0.4 0 0.9 0 0.5 0 0.9 0h3.9q1.4 0 2.4 0.4 1 0.3 1.6 0.9 0.6 0.6 0.8 1.3 0.3 0.8 0.3 1.5 0 1.3-0.5 2-0.4 0.8-1 1.2-0.7 0.6-1.5 0.8 0.5 0.8 0.9 1.4 0.3 0.5 0.6 0.9 0.3 0.4 0.6 0.8 0.2 0.3 0.6 0.8 0.7 0.9 1.5 1.6 0.7 0.7 1.8 0.7 0 0.2 0 0.4 0 0.2-0.1 0.4 0 0.2-0.1 0.4-0.1 0.1-0.1 0.2-1.5 0.1-2.4-0.3-0.9-0.3-1.6-1.1-0.4-0.5-0.9-1.1-0.4-0.5-0.8-1.1-0.4-0.7-0.9-1.5-0.5-0.7-1.2-1.9-0.5 0-1 0-0.5 0-1 0v2.7q0 0.7 0 1.3 0 0.7 0 1.1zm-2.3-6.5q0.3 0 0.6 0 0.4 0 0.7 0 1.9 0 2.7-0.7 0.7-0.8 0.7-2.3 0-1.4-0.7-2.2-0.8-0.7-2.5-0.7h-1.5zm-7.8 7.9h-5.1q-0.5 0-1.1 0-0.6 0-0.9 0h-0.7q-0.5 0-1 0-0.4 0-0.9 0h-0.6q0-0.3 0-0.7 0-0.4 0-0.7h2.1q0-0.6 0-1.5 0.1-1 0.1-1.9 0-1 0-1.8v-4.3q0-0.9 0-1.7 0-0.8-0.1-1.3l-2-0.1q0-0.2 0-0.6 0-0.4 0-0.7h0.6q0.4 0 0.9 0 0.5 0 1 0h7.2l1.8-0.1v0.8q0 0.6 0 1.2 0.1 0.6 0.1 1.1v0.7q-0.2 0-0.4 0h-0.9q-0.2 0-0.3 0l-0.2-1.7q0-0.3-0.2-0.4-0.2-0.1-0.4-0.1h-4.8q0 0.6 0 1.2-0.1 0.7-0.1 1.4 0 0.7 0 1.3v1.2q0.5 0 0.9 0h1.7q0.4 0 0.9 0l0.1-1.8q0.7-0.1 1.3 0 0 0.6 0 1.3v3q0 0.7 0 1.3-0.6 0.1-1.3 0l-0.1-2.3q-0.5 0-0.9 0-0.4 0-0.8 0-0.4 0-0.9 0-0.4 0-0.9 0v2.8q0 0.8 0 1.6 0 0.7 0.1 1.3h5.2q0.4 0 0.5-0.1 0.2-0.1 0.2-0.4l0.1-2.1q0.2 0 0.4 0 0.2 0 0.4 0 0.2 0 0.4 0 0.2 0 0.4 0v0.8q0 0.5 0 1.2 0 0.7 0 1.3v0.9zm-19.6 0.1l-5-14-1.6-0.1q0-0.2 0-0.6 0-0.4 0-0.7 0.5 0 1 0h2.4q0.5 0 1 0 0.5 0 1 0h0.6q0 0.3 0 0.7 0 0.4 0 0.6l-2.1 0.1 4.1 11.4 3.8-11.3-2.3-0.2q0-0.2 0-0.6 0-0.4 0-0.7 0.6 0 1.2 0h2.5q0.3 0 0.7 0 0.3 0 0.7 0h0.4q0.1 0.3 0.1 0.7 0 0.4-0.1 0.6l-1.4 0.1-5 14zm-9.5-0.1h-5.1q-0.5 0-1.1 0-0.5 0-0.8 0h-0.8q-0.4 0-0.9 0-0.5 0-0.9 0h-0.6q0-0.3 0-0.7 0-0.4 0-0.6l2-0.1q0-0.6 0.1-1.5 0-0.9 0-1.9 0-0.9 0-1.8v-4.2q0-0.9 0-1.8 0-0.8 0-1.3l-2.1-0.1q0-0.2 0-0.6 0-0.4 0-0.7h0.6q0.5 0 1 0 0.4 0 0.9 0h7.2l1.9-0.1v0.8q0 0.6 0 1.2 0 0.6 0 1.1v0.7q-0.2 0-0.4 0h-0.9q-0.2 0-0.3 0l-0.2-1.6q0-0.4-0.2-0.5-0.1-0.1-0.4-0.1h-4.8q0 0.6 0 1.2 0 0.7 0 1.4-0.1 0.7-0.1 1.3v1.2q0.5 0.1 0.9 0.1h1.7q0.4 0 0.9-0.1l0.2-1.8q0.6 0 1.3 0 0 0.6 0 1.4v2.9q0 0.7 0 1.3-0.7 0.1-1.3 0l-0.2-2.3q-0.5 0-0.9 0-0.4 0-0.8 0-0.4 0-0.8 0-0.5 0-1 0v2.8q0 0.8 0.1 1.6 0 0.7 0 1.3h5.2q0.4 0 0.5-0.1 0.2-0.1 0.2-0.4l0.2-2.1q0.1 0 0.3 0 0.2 0 0.4 0 0.3 0 0.5 0 0.2 0 0.3 0v0.8q0 0.6 0 1.2 0 0.7 0 1.3v0.9zm-17.3-1.3q0.5 0 1-0.1 0.5-0.1 0.9-0.3 0.4-0.3 0.7-0.6 0.2-0.4 0.2-1 0-0.5-0.1-0.9-0.2-0.5-0.5-0.9-0.4-0.4-1-0.9-0.6-0.4-1.5-0.9-1-0.6-1.8-1.1-0.7-0.5-1.2-1-0.6-0.6-0.8-1.2-0.3-0.6-0.3-1.4 0-0.9 0.4-1.6 0.4-0.8 1.1-1.3 0.6-0.5 1.5-0.8 0.9-0.3 1.9-0.3 0.6 0 1.1 0.1 0.4 0 0.8 0.1 0.4 0.1 0.8 0.2 0.3 0.1 0.8 0.1h0.6v0.9q0 0.6 0 1.2 0.1 0.7 0.1 1.3v0.7h-1.6l-0.2-1.9q0-0.3-0.2-0.5-0.3-0.2-0.6-0.3-0.4-0.1-0.8-0.2-0.5-0.1-0.9-0.1-0.5 0-1 0.1-0.5 0.1-0.8 0.3-0.3 0.2-0.6 0.5-0.2 0.3-0.2 0.8 0 0.4 0.1 0.8 0.1 0.4 0.4 0.8 0.4 0.4 1 0.8 0.6 0.5 1.6 1.1 1.2 0.7 2 1.2 0.8 0.5 1.3 1.1 0.5 0.5 0.7 1.1 0.2 0.6 0.2 1.3 0 1-0.4 1.8-0.5 0.8-1.2 1.4-0.8 0.6-1.8 0.9-1 0.3-2.1 0.3-0.7 0-1.1-0.1-0.4 0-0.7-0.1-0.4-0.1-0.7-0.2-0.4 0-1-0.1l-0.5 0.1v-0.9q0-0.6 0-1.3 0-0.7 0-1.3v-0.7h1.5l0.2 1.8q0.1 0.5 0.2 0.7 0.2 0.2 0.6 0.2 0.4 0.2 0.9 0.2 0.4 0.1 1 0.1z"/>
				<path id="&lt;Compound Path&gt;" fill-rule="evenodd" class="s4" d="m194.6 337.3l2.4 0.1q0.1 0.3 0.1 0.7 0 0.3-0.1 0.6h-1.2q-0.5 0-1 0-0.5 0-0.8 0h-0.7q-0.3 0-0.7 0-0.3 0-0.6 0h-0.5q0-0.3 0-0.6 0-0.4 0-0.7h1.4l5.4-14h1.9l4.8 14h1.5q0 0.3 0 0.7 0 0.3 0 0.6h-0.9q-0.4 0-0.9 0-0.5 0-0.8 0h-0.8q-0.4 0-1 0-0.5 0-0.9 0h-0.7q0-0.3 0-0.6 0-0.4 0-0.7l2.1-0.1-1.2-3.7h-4q-0.7 0-1.4 0zm1.8-4.9q0.7 0 1.3 0 0.6 0 1.3 0 0.4 0 0.9 0 0.5 0 1.1 0l-2.2-6.6zm-7.8-7.5q0 0.7 0 1.6-0.1 0.8-0.1 1.6 0 0.9 0 1.6v4.4q0 0.9 0 1.8 0 0.9 0.1 1.5l2 0.1q0 0.2 0 0.6 0 0.4 0 0.7h-1.3q-0.5 0-1.1 0-0.6 0-0.9 0h-0.7q-0.5 0-1 0-0.4 0-0.9 0h-0.6q0-0.3 0-0.7 0-0.4 0-0.6l2.1-0.1q0-0.6 0-1.5 0.1-0.9 0.1-1.9 0-0.9 0-1.8v-4.2q0-0.9 0-1.8 0-0.8-0.1-1.3h-2q0-0.3 0-0.7 0-0.4 0-0.7h0.6q0.4 0 0.9 0 0.5 0 1 0h2.7q0.6 0 1.3 0 0 0.3 0 0.7 0 0.4 0 0.7zm-8.5 0.9q0-0.5-0.3-0.6-0.2-0.2-0.5-0.3-0.5 0-1-0.1-0.5-0.1-1.2-0.1-1.2 0-2.2 0.3-1.1 0.3-1.9 1.1-0.8 0.7-1.3 1.9-0.5 1.1-0.5 2.9 0 1.9 0.5 3.1 0.6 1.3 1.4 2 0.8 0.8 1.8 1.1 1 0.3 1.9 0.3 0.7 0 1.2 0 0.6 0 1.1-0.2 0.6-0.1 0.8-0.2 0.2-0.2 0.3-0.7l0.3-2.3q0.2 0 0.4 0h0.8q0.2 0 0.4 0 0 0.2 0 0.8-0.1 0.6-0.1 1.4-0.1 0.7-0.1 1.3 0 0.7 0 0.9h-0.5q-0.4 0-0.9 0.1-0.6 0.1-1.2 0.2-0.6 0.1-1.2 0.2-0.7 0.1-1.2 0.1-1.9 0-3.3-0.5-1.5-0.5-2.6-1.6-1.1-0.9-1.6-2.4-0.6-1.4-0.6-3.1 0-1.9 0.6-3.4 0.6-1.5 1.7-2.6 1.1-1.1 2.6-1.7 1.5-0.5 3.4-0.5 0.5 0 1.1 0 0.6 0.1 1.2 0.2 0.6 0.1 1.1 0.2 0.5 0.1 0.9 0.1h0.5v0.8q0 0.6 0 1.2 0 0.7 0 1.2v0.7q-0.2 0-0.4 0h-0.8q-0.2 0-0.4 0zm-14.5 9.6q0 1.9 0 3.8h-1.2l-9.7-12.1q-0.1 1.3-0.1 2.7v7.6l3.1 0.1q0 0.2 0 0.6 0 0.4 0 0.7h-1.6q-0.6 0-1.2 0-0.7 0-1 0h-0.7q-0.4 0-0.7 0-0.4 0-0.8 0h-0.5q0-0.3 0-0.7 0-0.4 0-0.6l1.7-0.1 0.1-12.3-2.2-0.3v-1.3q0.9 0 1.9 0h1.8l9.5 11.8q-0.1-1.5-0.1-3 0-1.5 0-2.9 0-1.1 0-2.2 0-1.1 0-2.3l-3-0.1q0-0.2 0-0.6 0-0.4 0-0.7 0.8 0 1.6 0h2.8q0.4 0 0.8 0 0.4 0 0.7 0h0.6q0 0.3 0 0.7 0 0.4 0 0.6l-1.8 0.1zm-17.9 3.4h-5q-0.6 0-1.1 0-0.6 0-0.9 0h-0.7q-0.5 0-1 0-0.5 0-0.9 0h-0.6q0-0.3 0-0.7 0-0.4 0-0.6l2.1-0.1q0-0.6 0-1.5 0-1 0-1.9 0.1-0.9 0.1-1.8v-4.2q0-0.9-0.1-1.8 0-0.8 0-1.3l-2-0.1q-0.1-0.2-0.1-0.6 0-0.4 0.1-0.7h0.6q0.4 0 0.9 0 0.5 0 1 0h7.2l1.8-0.1v0.8q0 0.6 0 1.2 0 0.6 0 1.1v0.7q-0.1 0-0.4 0h-0.8q-0.2 0-0.3 0l-0.2-1.6q-0.1-0.4-0.2-0.5-0.2-0.1-0.5-0.1h-4.7q-0.1 0.6-0.1 1.2 0 0.7 0 1.4 0 0.7 0 1.3v1.2q0.5 0.1 0.9 0.1h1.6q0.5 0 0.9-0.1l0.2-1.8q0.6 0 1.3 0 0 0.6 0 1.4v2.9q0 0.7 0 1.3-0.7 0.1-1.3 0l-0.2-2.3q-0.4 0-0.8 0-0.4 0-0.9 0-0.4 0-0.8 0-0.4 0-0.9 0v2.8q0 0.8 0 1.6 0 0.7 0 1.3h5.3q0.3 0 0.5-0.1 0.1-0.1 0.2-0.4l0.1-2.1q0.1 0 0.3 0 0.2 0 0.5 0 0.2 0 0.4 0 0.2 0 0.4 0v0.8q0 0.6 0 1.2 0 0.7 0 1.3v0.9zm-13.2-4.6q0.1 0.1 0.3 0 0.2 0 0.4 0 0.2 0 0.4 0 0.2 0.1 0.4 0v0.9q0 0.6 0 1.3 0 0.8 0 1.5v0.9h-6.5q-0.5 0-1.1 0-0.5 0-0.8 0h-0.8q-0.4 0-0.9 0-0.5 0-0.9 0h-0.6q0-0.3 0-0.7 0-0.4 0-0.6l2-0.1q0.1-0.6 0.1-1.5 0-0.9 0-1.9 0-0.9 0-1.7v-4.3q0-0.9 0-1.7 0-0.9 0-1.3l-2.1-0.1q0-0.3 0-0.7 0-0.3 0-0.7h0.6q0.5 0 1 0 0.5 0 0.9 0h2.7q0.6 0 1.3 0 0 0.4 0 0.7 0 0.4 0 0.7l-2.1 0.1q0 0.7 0 1.5 0 0.8 0 1.7 0 0.8 0 1.5v4.3q0 0.9 0 1.8 0 0.9 0 1.5h4.9q0.3 0 0.4-0.1 0.2-0.1 0.2-0.3zm-13.6 4.5h-5q-0.6 0-1.1 0-0.6 0-0.9 0h-0.8q-0.4 0-0.9 0-0.5 0-0.9 0h-0.6q0-0.3 0-0.7 0-0.4 0-0.6l2.1-0.1q0-0.6 0-1.5 0-0.9 0-1.9 0-0.9 0-1.8v-4.2q0-0.9 0-1.8 0-0.8 0-1.3h-2q-0.1-0.3-0.1-0.7 0-0.4 0.1-0.7h0.6q0.4 0 0.9 0 0.5 0 0.9 0h7.2l1.9-0.1v0.9q0 0.5 0 1.1 0 0.6 0 1.1v0.7q-0.2 0-0.4 0h-0.8q-0.2 0-0.4 0l-0.1-1.6q-0.1-0.3-0.2-0.5-0.2-0.1-0.5-0.1h-4.8q0 0.6 0 1.3 0 0.6 0 1.3 0 0.7 0 1.4v1.2q0.4 0 0.9 0h1.6q0.4 0 0.9 0l0.2-1.9q0.6 0 1.3 0 0 0.7 0 1.4v2.9q0 0.7 0 1.4-0.7 0-1.3 0l-0.2-2.4q-0.5 0-0.9 0-0.4 0-0.8 0-0.4 0-0.8 0-0.4 0-0.9 0v2.9q0 0.7 0 1.5 0 0.7 0 1.3h5.3q0.3 0 0.5-0.1 0.1-0.1 0.1-0.4l0.2-2.1q0.1 0 0.3 0 0.2 0 0.5 0 0.2 0 0.4 0 0.2 0 0.4 0v0.8q0 0.6 0 1.2-0.1 0.7-0.1 1.3v0.9zm-14.2-13q0-0.4-0.3-0.5-0.2-0.2-0.5-0.3-0.5-0.1-1-0.1-0.5-0.1-1.2-0.1-1.2 0-2.2 0.3-1.1 0.3-1.9 1-0.8 0.8-1.3 1.9-0.5 1.2-0.5 3 0 1.9 0.5 3.1 0.6 1.3 1.4 2 0.8 0.8 1.8 1.1 1 0.3 2 0.3 0.6 0 1.1 0 0.6-0.1 1.1-0.2 0.6-0.1 0.8-0.2 0.2-0.2 0.3-0.7l0.3-2.3q0.2 0 0.4 0h0.8q0.2 0 0.4 0 0 0.2 0 0.8 0 0.6-0.1 1.3-0.1 0.8-0.1 1.4 0 0.6 0 0.9h-0.5q-0.4 0-0.9 0.1-0.6 0.1-1.2 0.2-0.6 0.1-1.2 0.2-0.7 0.1-1.2 0.1-1.9 0-3.3-0.5-1.5-0.6-2.6-1.6-1.1-1-1.6-2.4-0.6-1.4-0.6-3.1 0-1.9 0.6-3.4 0.6-1.5 1.7-2.6 1.1-1.1 2.6-1.7 1.5-0.6 3.4-0.6 0.5 0 1.1 0.1 0.6 0.1 1.2 0.2 0.6 0.1 1.1 0.2 0.5 0 0.9 0.1l0.5-0.1v0.9q0 0.6 0 1.2 0 0.6 0 1.2v0.7q-0.2 0-0.4 0h-0.8q-0.2 0-0.4 0zm-22.9-0.9q0.3 0.4 0.6 0.9 0.3 0.6 0.6 1.1 0.4 0.6 0.8 1.2 0.4 0.5 0.7 1l2.7-4.2-1.5-0.1q0-0.2 0-0.6 0-0.4 0-0.7 0.6 0 1.2 0h2.5q0.4 0 0.7 0 0.4 0 0.7 0h0.5q0 0.3 0 0.7 0 0.4 0 0.6l-2.3 0.1-3.7 5.4 5 7.2h1.7q0 0.3 0 0.7 0 0.3 0 0.7h-0.5q-0.4 0-0.7-0.1-0.3 0-0.7 0h-0.6q-0.4 0-0.9 0-0.6 0.1-1.2 0.1h-1.5q0-0.4 0-0.7 0-0.4 0-0.7h1.4l-3.4-5.2-3.3 5.2h1.7q0 0.3 0 0.7 0 0.3 0 0.7h-0.6q-0.4 0-0.8-0.1-0.5 0-0.9 0h-0.7q-0.4 0-0.8 0-0.4 0.1-0.8 0.1h-1q0-0.4 0-0.7 0-0.4 0-0.7h1.9l4.5-6.4-4.2-6.2-1.6-0.1q0-0.2 0-0.6 0-0.4 0-0.7 0.5 0 1 0h2.4q0.4 0 0.9 0 0.5 0 0.9 0h0.6q0.1 0.3 0.1 0.7 0 0.4-0.1 0.6zm-8 13.9h-5q-0.6 0-1.1 0-0.6 0-0.9 0h-0.8q-0.4 0-0.9 0-0.5 0-0.9 0h-0.6q0-0.3 0-0.7 0-0.3 0-0.6l2.1-0.1q0-0.6 0-1.5 0-0.9 0-1.9 0-0.9 0-1.7v-4.3q0-0.9 0-1.8 0-0.8 0-1.3h-2q-0.1-0.3-0.1-0.7 0-0.3 0.1-0.7h0.6q0.4 0 0.9 0 0.5 0.1 1 0.1h7.1l1.9-0.2v0.9q0 0.5 0 1.1 0 0.6 0 1.1v0.7q-0.2 0-0.4 0h-0.8q-0.2 0-0.4 0l-0.1-1.6q-0.1-0.3-0.2-0.4-0.2-0.1-0.5-0.1l-4.8-0.1q0 0.6 0 1.3 0 0.6 0 1.3 0 0.7 0 1.4v1.2q0.4 0 0.9 0h1.6q0.4 0 0.9 0l0.2-1.9q0.6 0 1.3 0 0 0.7 0 1.4v2.9q0 0.7 0 1.4-0.7 0-1.3 0l-0.2-2.4q-0.5 0-0.9 0-0.4 0-0.8 0-0.4 0-0.8 0-0.4 0-0.9 0v2.9q0 0.8 0 1.5 0 0.7 0 1.3h5.3q0.3 0 0.5-0.1 0.1-0.1 0.1-0.4l0.2-2.1q0.1 0 0.3 0 0.2 0 0.5 0 0.2 0 0.4 0 0.2 0 0.4 0v0.8q0 0.6 0 1.2-0.1 0.7-0.1 1.3v0.9z"/>
			</g>
		</g>
	</g>
</svg>