<svg height="102" viewBox="0 0 861 102" width="861" xmlns="http://www.w3.org/2000/svg" xmlns:xlink="http://www.w3.org/1999/xlink"><clipPath id="a"><path d="m-165 203h1191.34v-304.27h-1191.34z"/></clipPath><g clip-path="url(#a)"><path d="m813.4.2c30.4 0 47.6 24.4 47.6 50.7 0 26.2-17.2 50.6-47.6 50.6s-47.6-24.4-47.6-50.6c0-26.3 17.2-50.7 47.6-50.7zm0 17.4c-18.2 0-27.3 15.7-27.3 33.3 0 17.5 9.1 33.2 27.3 33.2s27.3-15.7 27.3-33.2c0-17.6-9.1-33.3-27.3-33.3zm-94.9 45.1 21.6 37h-22.1l-20.5-37h-7.6v37h-19.5v-97.7h54.7l19.9 19.4v21.1l-21 20.2zm10.2-35.1-10.4-9h-28.3v27.6h28.3l10.4-10zm-87.4-8.2h-42.9v22.2h41.7v17.4h-41.7v23.3h42.9v17.4h-62.4v-97.7h62.4zm-156.1 0v-17.4h66.9v15.3l-45.5 65h45.5v17.4h-70.1v-15.3l45.4-65zm-68.2-19.3c30.4 0 47.5 24.5 47.5 50.7 0 26.3-17.1 50.7-47.5 50.7s-47.6-24.4-47.6-50.7c0-26.2 17.2-50.7 47.6-50.7zm0 17.5c-18.2 0-27.3 15.7-27.3 33.2 0 17.6 9.1 33.3 27.3 33.3s27.3-15.7 27.3-33.3c0-17.5-9.1-33.2-27.3-33.2zm-136.2-15.6h70.9v17.4h-25.7v80.3h-19.5v-80.3h-25.7zm-92.2 0h70.9v17.4h-25.7v80.3h-19.5v-80.3h-25.7zm-65.3-1.8c30.4 0 47.5 24.4 47.5 50.7 0 26.2-17.1 50.6-47.5 50.6s-47.6-24.4-47.6-50.6c0-26.3 17.2-50.7 47.6-50.7zm0 17.4c-18.2 0-27.3 15.7-27.3 33.3 0 17.5 9.1 33.2 27.3 33.2s27.3-15.7 27.3-33.2c0-17.6-9.1-33.3-27.3-33.3zm-122.9 71.6v-87.2h19.5v79.5h37.5v18.2h-47z" fill="#fefefe" fill-rule="evenodd"/></g></svg>